<?xml version="1.0" encoding="utf-8"?>
<!-- Generator: Adobe Illustrator 21.0.0, SVG Export Plug-In . SVG Version: 6.00 Build 0)  -->
<svg version="1.1" id="Слой_1" xmlns="http://www.w3.org/2000/svg" xmlns:xlink="http://www.w3.org/1999/xlink" x="0px" y="0px"
	 viewBox="0 0 112 494" style="enable-background:new 0 0 112 494;" xml:space="preserve">
<style type="text/css">
	.st0{fill:#637B94;}
	.st1{fill:#C3922E;}
	.st2{fill:#0A95DD;}
	.st3{fill:#FFFFFF;}
	.st4{fill:#F44336;}
	.st5{fill:#5D2684;}
	.st6{fill:#BAC5D1;}
	.st7{fill:#16A085;}
	.st8{fill:url(#SVGID_1_);}
	.st9{fill:url(#SVGID_2_);}
</style>
<g>
	<path class="st0" d="M44.6,81.3h14.9c0.3,0,0.6-0.2,0.6-0.6V68.1c0-0.3-0.2-0.6-0.6-0.6h-2.8V67c0-0.3-0.2-0.6-0.6-0.6
		c-0.3,0-0.6,0.2-0.6,0.6v0.5h-6.9V67c0-0.3-0.2-0.6-0.6-0.6c-0.3,0-0.6,0.2-0.6,0.6v0.5h-2.9c-0.3,0-0.6,0.2-0.6,0.6v12.7
		C44,81.1,44.3,81.3,44.6,81.3L44.6,81.3z M45.1,68.7h2.3V69c0,0.3,0.2,0.6,0.6,0.6c0.3,0,0.6-0.2,0.6-0.6v-0.3h6.9V69
		c0,0.3,0.2,0.6,0.6,0.6c0.3,0,0.6-0.2,0.6-0.6v-0.3H59v1.5H45.1V68.7z M45.1,71.3h13.8v8.9H45.1V71.3z"/>
	<path class="st0" d="M56.1,73.9H48c-0.3,0-0.6,0.2-0.6,0.6s0.2,0.6,0.6,0.6h8.1c0.3,0,0.6-0.2,0.6-0.6S56.4,73.9,56.1,73.9
		L56.1,73.9z"/>
	<path class="st0" d="M52,76.6h-4c-0.3,0-0.6,0.2-0.6,0.6s0.2,0.6,0.6,0.6h4c0.3,0,0.6-0.2,0.6-0.6S52.3,76.6,52,76.6L52,76.6z"/>
</g>
<g>
	<path class="st0" d="M51.5,98.4c4.1,0,7.5-3.4,7.5-7.5s-3.4-7.5-7.5-7.5S44,86.8,44,90.9C44,95.1,47.4,98.4,51.5,98.4L51.5,98.4z
		 M51.5,84.5c3.6,0,6.5,2.9,6.5,6.5s-2.9,6.5-6.5,6.5S45,94.6,45,91S47.9,84.5,51.5,84.5L51.5,84.5z"/>
	<path class="st0" d="M51.2,91.8h2.5c0.3,0,0.5-0.2,0.5-0.5s-0.2-0.5-0.5-0.5h-2v-3.1c0-0.3-0.2-0.5-0.5-0.5s-0.5,0.2-0.5,0.5v3.6
		C50.6,91.6,50.9,91.8,51.2,91.8L51.2,91.8z"/>
</g>
<g>
	<g>
		<path class="st0" d="M104.8,61.7L96,53l-8.7,8.7c-0.4,0.4-0.4,1.2,0,1.6c0.4,0.4,1.2,0.4,1.6,0l0.3-0.3v5.2h13.6V63l0.3,0.3
			c0.2,0.2,0.5,0.3,0.8,0.3s0.6-0.1,0.8-0.3C105.2,62.9,105.2,62.1,104.8,61.7L104.8,61.7z M101.7,67h-6.8v-4.5h-2.3V67h-2.3v-5.2
			l5.7-5.7l5.7,5.7L101.7,67L101.7,67z"/>
	</g>
	<rect x="97.2" y="62.5" class="st0" width="2.3" height="2.3"/>
	<rect x="97.2" y="62.5" class="st0" width="2.3" height="2.3"/>
	<path class="st0" d="M92.7,54.8v-1.3h-2.3v3.6L92.7,54.8z"/>
</g>
<g>
	<g>
		<path class="st1" d="M104.8,78.9L96,70.2l-8.7,8.7c-0.4,0.4-0.4,1.2,0,1.6s1.2,0.4,1.6,0l0.3-0.3v5.2h13.6v-5.2l0.3,0.3
			c0.2,0.2,0.5,0.3,0.8,0.3s0.6-0.1,0.8-0.3C105.2,80.1,105.2,79.4,104.8,78.9L104.8,78.9z M101.7,84.3h-6.8v-4.5h-2.3v4.5h-2.3
			v-5.2l5.7-5.7l5.7,5.7L101.7,84.3L101.7,84.3z"/>
	</g>
	<rect x="97.2" y="79.7" class="st1" width="2.3" height="2.3"/>
	<rect x="97.2" y="79.7" class="st1" width="2.3" height="2.3"/>
	<path class="st1" d="M92.7,72v-1.3h-2.3v3.6L92.7,72z"/>
</g>
<ellipse class="st0" cx="95.6" cy="233.5" rx="1.1" ry="1.1"/>
<ellipse class="st0" cx="97.9" cy="232.2" rx="0.9" ry="0.9"/>
<path class="st0" d="M101.7,246.1l-4.7-7.2v-2.2h1.4v-1.5h-7.7v1.5H92v2.2l-4.7,7.2c-0.2,0.3-0.3,0.7-0.3,1c0,1.2,1,2.2,2.3,2.2
	h10.5c1.3,0,2.3-1,2.3-2.2C102,246.8,101.9,246.4,101.7,246.1z M90.9,243.5l2.7-4.1v-2.6h1.8v2.6l2.7,4.1H90.9z"/>
<ellipse class="st1" cx="95.6" cy="253.5" rx="1.1" ry="1.1"/>
<ellipse class="st1" cx="97.9" cy="252.2" rx="0.9" ry="0.9"/>
<path class="st1" d="M101.7,266.1l-4.7-7.2v-2.2h1.4v-1.5h-7.7v1.5H92v2.2l-4.7,7.2c-0.2,0.3-0.3,0.7-0.3,1c0,1.2,1,2.2,2.3,2.2
	h10.5c1.3,0,2.3-1,2.3-2.2C102,266.7,101.9,266.4,101.7,266.1z M90.9,263.4l2.7-4.1v-2.6h1.8v2.6l2.7,4.1H90.9z"/>
<g>
	<path class="st0" d="M95,88.9l-1.6-1.6h-5.3c-0.6,0-1.1,0.5-1.1,1.1v12.9c0,0.6,0.5,1.1,1.1,1.1H103c0.6,0,1.1-0.5,1.1-1.1V90
		c0-0.6-0.5-1.1-1.1-1.1H95z M92.7,88.9l1.6,1.6h8.1v1.1H88.6v-2.7H92.7z M88.6,100.7v-7.5h13.8v7.5H88.6z"/>
</g>
<g>
	<path class="st1" d="M95,105.9l-1.6-1.6h-5.3c-0.6,0-1.1,0.5-1.1,1.1v12.9c0,0.6,0.5,1.1,1.1,1.1H103c0.6,0,1.1-0.5,1.1-1.1V107
		c0-0.6-0.5-1.1-1.1-1.1H95z M92.7,105.9l1.6,1.6h8.1v1.1H88.6v-2.7H92.7z M88.6,117.7v-7.5h13.8v7.5H88.6z"/>
</g>
<g>
	<path class="st0" d="M98.8,202.7c0.6-1,1-2.2,1-3.5c0-3.2-2.1-5.8-4.8-5.8c-2.7,0-4.8,2.6-4.8,5.8c0,1.3,0.4,2.5,1,3.5
		c-2.5,1.2-4.2,3.4-4.2,6.1v0.5c0,0.6,0.5,1.1,1.1,1.1H102c0.6,0,1.1-0.5,1.1-1.1v-0.5C103,206.1,101.3,203.8,98.8,202.7z M95,194.9
		c1.7,0,3.2,1.9,3.2,4.3c0,2.3-1.5,4.2-3.2,4.2s-3.2-1.9-3.2-4.2C91.8,196.8,93.3,194.9,95,194.9z M88.6,208.7
		c0-2.1,1.5-3.9,3.6-4.8c0.8,0.7,1.7,1.1,2.8,1.1c1,0,2-0.4,2.8-1.1c2.2,0.9,3.6,2.7,3.6,4.8H88.6z"/>
</g>
<g>
	<path class="st1" d="M98.8,221.7c0.6-1,1-2.2,1-3.5c0-3.2-2.1-5.8-4.8-5.8c-2.7,0-4.8,2.6-4.8,5.8c0,1.3,0.4,2.5,1,3.5
		c-2.5,1.2-4.2,3.4-4.2,6.1v0.5c0,0.6,0.5,1.1,1.1,1.1H102c0.6,0,1.1-0.5,1.1-1.1v-0.5C103,225.1,101.3,222.8,98.8,221.7z M95,213.9
		c1.7,0,3.2,1.9,3.2,4.3c0,2.3-1.5,4.2-3.2,4.2s-3.2-1.9-3.2-4.2C91.8,215.8,93.3,213.9,95,213.9z M88.6,227.7
		c0-2.1,1.5-3.9,3.6-4.8c0.8,0.7,1.7,1.1,2.8,1.1c1,0,2-0.4,2.8-1.1c2.2,0.9,3.6,2.7,3.6,4.8H88.6z"/>
</g>
<g>
	<path class="st0" d="M102,166.3h-0.6c-0.2,1-0.6,2-1.2,2.8l0.5,0.5c0.2,0.2,0.3,0.5,0.3,0.7c0,0.3-0.1,0.5-0.3,0.7
		c-0.2,0.2-0.4,0.3-0.7,0.3c-0.3,0-0.5-0.1-0.7-0.3l-0.5-0.5c-0.8,0.6-1.8,1-2.8,1.2v0.6c0,0.6-0.4,1-1,1s-1-0.4-1-1v-0.6
		c-1-0.2-2-0.6-2.8-1.2l-0.5,0.5c-0.2,0.2-0.5,0.3-0.7,0.3c-0.3,0-0.5-0.1-0.7-0.3s-0.3-0.4-0.3-0.7s0.1-0.5,0.3-0.7l0.5-0.5
		c-0.6-0.8-1-1.8-1.2-2.8H88c-0.6,0-1-0.4-1-1s0.4-1,1-1h0.6c0.2-1,0.6-2,1.2-2.8l-0.5-0.5c-0.2-0.2-0.3-0.5-0.3-0.7
		c0-0.3,0.1-0.5,0.3-0.7c0.2-0.2,0.5-0.3,0.7-0.3c0.3,0,0.5,0.1,0.7,0.3l0.5,0.5c0.8-0.6,1.8-1,2.8-1.2v-0.6c0-0.6,0.4-1,1-1
		s1,0.4,1,1v0.6c1,0.2,2,0.6,2.8,1.2l0.5-0.5c0.2-0.2,0.5-0.3,0.7-0.3c0.3,0,0.5,0.1,0.7,0.3s0.3,0.5,0.3,0.7c0,0.3-0.1,0.5-0.3,0.7
		l-0.5,0.5c0.6,0.8,1,1.8,1.2,2.8h0.6c0.6,0,1,0.4,1,1C103,165.9,102.6,166.3,102,166.3z M95,160.3c-2.8,0-5,2.2-5,5s2.2,5,5,5
		s5-2.2,5-5S97.8,160.3,95,160.3z M95,168.3c-1.7,0-3-1.3-3-3s1.3-3,3-3s3,1.3,3,3S96.7,168.3,95,168.3z M95,163.8
		c-0.8,0-1.5,0.7-1.5,1.5s0.7,1.5,1.5,1.5s1.5-0.7,1.5-1.5S95.8,163.8,95,163.8z"/>
</g>
<g>
	<path class="st1" d="M102,184.3h-0.6c-0.2,1-0.6,2-1.2,2.8l0.5,0.5c0.2,0.2,0.3,0.5,0.3,0.7c0,0.3-0.1,0.5-0.3,0.7
		c-0.2,0.2-0.4,0.3-0.7,0.3c-0.3,0-0.5-0.1-0.7-0.3l-0.5-0.5c-0.8,0.6-1.8,1-2.8,1.2v0.6c0,0.6-0.4,1-1,1s-1-0.4-1-1v-0.6
		c-1-0.2-2-0.6-2.8-1.2l-0.5,0.5c-0.2,0.2-0.5,0.3-0.7,0.3c-0.3,0-0.5-0.1-0.7-0.3s-0.3-0.4-0.3-0.7s0.1-0.5,0.3-0.7l0.5-0.5
		c-0.6-0.8-1-1.8-1.2-2.8H88c-0.6,0-1-0.4-1-1s0.4-1,1-1h0.6c0.2-1,0.6-2,1.2-2.8l-0.5-0.5c-0.2-0.2-0.3-0.5-0.3-0.7
		c0-0.3,0.1-0.5,0.3-0.7c0.2-0.2,0.5-0.3,0.7-0.3c0.3,0,0.5,0.1,0.7,0.3l0.5,0.5c0.8-0.6,1.8-1,2.8-1.2v-0.6c0-0.6,0.4-1,1-1
		s1,0.4,1,1v0.6c1,0.2,2,0.6,2.8,1.2l0.5-0.5c0.2-0.2,0.5-0.3,0.7-0.3c0.3,0,0.5,0.1,0.7,0.3s0.3,0.5,0.3,0.7c0,0.3-0.1,0.5-0.3,0.7
		l-0.5,0.5c0.6,0.8,1,1.8,1.2,2.8h0.6c0.6,0,1,0.4,1,1C103,183.9,102.6,184.3,102,184.3z M95,178.3c-2.8,0-5,2.2-5,5s2.2,5,5,5
		s5-2.2,5-5S97.8,178.3,95,178.3z M95,186.3c-1.7,0-3-1.3-3-3s1.3-3,3-3s3,1.3,3,3S96.7,186.3,95,186.3z M95,181.8
		c-0.8,0-1.5,0.7-1.5,1.5s0.7,1.5,1.5,1.5s1.5-0.7,1.5-1.5S95.8,181.8,95,181.8z"/>
</g>
<g>
	<path class="st0" d="M48,250.8v1c0,0.3-0.2,0.5-0.5,0.5h-1c-0.3,0-0.5-0.2-0.5-0.5v-1c0-0.3,0.2-0.5,0.5-0.5h1
		C47.8,250.3,48,250.5,48,250.8L48,250.8z M47.5,254.3h-1c-0.3,0-0.5,0.2-0.5,0.5v1c0,0.3,0.2,0.5,0.5,0.5h1c0.3,0,0.5-0.2,0.5-0.5
		v-1C48,254.5,47.8,254.3,47.5,254.3L47.5,254.3z M51.5,250.3h-1c-0.3,0-0.5,0.2-0.5,0.5v1c0,0.3,0.2,0.5,0.5,0.5h1
		c0.3,0,0.5-0.2,0.5-0.5v-1C52,250.5,51.8,250.3,51.5,250.3L51.5,250.3z M51.5,254.3h-1c-0.3,0-0.5,0.2-0.5,0.5v1
		c0,0.3,0.2,0.5,0.5,0.5h1c0.3,0,0.5-0.2,0.5-0.5v-1C52,254.5,51.8,254.3,51.5,254.3L51.5,254.3z M55.5,250.3h-1
		c-0.3,0-0.5,0.2-0.5,0.5v1c0,0.3,0.2,0.5,0.5,0.5h1c0.3,0,0.5-0.2,0.5-0.5v-1C56,250.5,55.8,250.3,55.5,250.3L55.5,250.3z
		 M55.5,254.3h-1c-0.3,0-0.5,0.2-0.5,0.5v1c0,0.3,0.2,0.5,0.5,0.5h1c0.3,0,0.5-0.2,0.5-0.5v-1C56,254.5,55.8,254.3,55.5,254.3
		L55.5,254.3z M46.5,246.3h1c0.3,0,0.5-0.2,0.5-0.5v-2c0-0.3-0.2-0.5-0.5-0.5h-1c-0.3,0-0.5,0.2-0.5,0.5v2
		C46,246.1,46.2,246.3,46.5,246.3L46.5,246.3z M59,247.3v10c0,1.1-0.9,2-2,2H45c-1.1,0-2-0.9-2-2v-10c0-1.1,0.9-2,2-2h0.5v0.5
		c0,0.6,0.4,1,1,1h1c0.6,0,1-0.4,1-1v-0.5h5v0.5c0,0.6,0.4,1,1,1h1c0.6,0,1-0.4,1-1v-0.5H57C58.1,245.3,59,246.2,59,247.3L59,247.3z
		 M58,249.3c0-0.6-0.4-1-1-1H45c-0.6,0-1,0.4-1,1v8c0,0.6,0.4,1,1,1h12c0.6,0,1-0.4,1-1V249.3z M54.5,246.3h1c0.3,0,0.5-0.2,0.5-0.5
		v-2c0-0.3-0.2-0.5-0.5-0.5h-1c-0.3,0-0.5,0.2-0.5,0.5v2C54,246.1,54.2,246.3,54.5,246.3L54.5,246.3z"/>
</g>
<g>
	<path class="st0" d="M58.4,47c-1.7-1.7-4-2.7-6.4-2.7c-5,0-9,4.1-9,9.1c0,2.3,0.8,4.5,2.3,6.1l-0.5,3.2c0,0.2,0,0.4,0.2,0.5
		c0.1,0.1,0.2,0.1,0.3,0.1s0.2,0,0.2-0.1l2.8-1.5c1.2,0.5,2.4,0.8,3.6,0.8c5,0,9-4.1,9-9.1C61,51,60.1,48.7,58.4,47z M46.3,59.5
		c0-0.1,0-0.3-0.1-0.4c-1.4-1.5-2.2-3.5-2.2-5.7s0.8-4.2,2.4-5.8c1.5-1.5,3.5-2.4,5.7-2.4c4.4,0,8.1,3.7,8.1,8.2s-3.6,8.2-8.1,8.2
		c-1.2,0-2.4-0.3-3.5-0.8c-0.1-0.1-0.3-0.1-0.4,0L46,61.9L46.3,59.5z"/>
	<path class="st0" d="M52,50.9c1.1,0,2-0.9,2-2s-0.9-2-2-2s-2,0.9-2,2S50.9,50.9,52,50.9z M51,48.9c0-0.6,0.5-1,1-1c0.6,0,1,0.5,1,1
		c0,0.6-0.5,1-1,1C51.4,49.9,51,49.5,51,48.9z"/>
	<path class="st0" d="M50,59.5h4.1c0.3,0,0.5-0.2,0.5-0.5v-1.2c0-0.3-0.2-0.5-0.5-0.5h-0.3v-5.7c0-0.3-0.2-0.5-0.5-0.5H50
		c-0.3,0-0.5,0.2-0.5,0.5v1.2c0,0.3,0.2,0.5,0.5,0.5h0.3v4H50c-0.3,0-0.5,0.2-0.5,0.5V59C49.5,59.3,49.7,59.5,50,59.5z M51.2,57.9
		v-5c0-0.3-0.2-0.5-0.5-0.5h-0.3v-0.2h2.4v5.7c0,0.3,0.2,0.5,0.5,0.5h0.3v0.2h-3.2v-0.2h0.3C51,58.4,51.2,58.1,51.2,57.9z"/>
</g>
<g>
	<path class="st1" d="M66.6,81.3h14.9c0.3,0,0.6-0.2,0.6-0.6V68.1c0-0.3-0.2-0.6-0.6-0.6h-2.8V67c0-0.3-0.2-0.6-0.6-0.6
		c-0.3,0-0.6,0.2-0.6,0.6v0.5h-6.9V67c0-0.3-0.2-0.6-0.6-0.6c-0.3,0-0.6,0.2-0.6,0.6v0.5h-2.9c-0.3,0-0.6,0.2-0.6,0.6v12.7
		C66,81.1,66.3,81.3,66.6,81.3L66.6,81.3z M67.1,68.7h2.3V69c0,0.3,0.2,0.6,0.6,0.6c0.3,0,0.6-0.2,0.6-0.6v-0.3h6.9V69
		c0,0.3,0.2,0.6,0.6,0.6c0.3,0,0.6-0.2,0.6-0.6v-0.3H81v1.5H67.1V68.7z M67.1,71.3h13.8v8.9H67.1V71.3z"/>
	<path class="st1" d="M78.1,73.9H70c-0.3,0-0.6,0.2-0.6,0.6s0.2,0.6,0.6,0.6h8.1c0.3,0,0.6-0.2,0.6-0.6S78.4,73.9,78.1,73.9
		L78.1,73.9z"/>
	<path class="st1" d="M74,76.6h-4c-0.3,0-0.6,0.2-0.6,0.6s0.2,0.6,0.6,0.6h4c0.3,0,0.6-0.2,0.6-0.6S74.3,76.6,74,76.6L74,76.6z"/>
</g>
<g>
	<path class="st1" d="M73.5,98.4c4.1,0,7.5-3.4,7.5-7.5s-3.4-7.5-7.5-7.5S66,86.8,66,90.9C66,95.1,69.4,98.4,73.5,98.4L73.5,98.4z
		 M73.5,84.5c3.6,0,6.5,2.9,6.5,6.5s-2.9,6.5-6.5,6.5S67,94.6,67,91S69.9,84.5,73.5,84.5L73.5,84.5z"/>
	<path class="st1" d="M73.2,91.8h2.5c0.3,0,0.5-0.2,0.5-0.5s-0.2-0.5-0.5-0.5h-2v-3.1c0-0.3-0.2-0.5-0.5-0.5s-0.5,0.2-0.5,0.5v3.6
		C72.6,91.6,72.9,91.8,73.2,91.8L73.2,91.8z"/>
</g>
<g>
	<path class="st1" d="M80.4,47c-1.7-1.7-4-2.7-6.4-2.7c-5,0-9,4.1-9,9.1c0,2.3,0.8,4.5,2.3,6.1l-0.5,3.2c0,0.2,0,0.4,0.2,0.5
		c0.1,0.1,0.2,0.1,0.3,0.1c0.1,0,0.2,0,0.2-0.1l2.8-1.5c1.2,0.5,2.4,0.8,3.6,0.8c5,0,9-4.1,9-9.1C83,51,82.1,48.7,80.4,47z
		 M68.3,59.5c0-0.1,0-0.3-0.1-0.4c-1.4-1.5-2.2-3.5-2.2-5.7s0.8-4.2,2.4-5.8c1.5-1.5,3.5-2.4,5.7-2.4c4.4,0,8.1,3.7,8.1,8.2
		s-3.6,8.2-8.1,8.2c-1.2,0-2.4-0.3-3.5-0.8c-0.1-0.1-0.3-0.1-0.4,0L68,61.9L68.3,59.5z"/>
	<path class="st1" d="M74,50.9c1.1,0,2-0.9,2-2s-0.9-2-2-2s-2,0.9-2,2S72.9,50.9,74,50.9z M73,48.9c0-0.6,0.5-1,1-1c0.6,0,1,0.5,1,1
		c0,0.6-0.5,1-1,1C73.4,49.9,73,49.5,73,48.9z"/>
	<path class="st1" d="M72,59.5h4.1c0.3,0,0.5-0.2,0.5-0.5v-1.2c0-0.3-0.2-0.5-0.5-0.5h-0.3v-5.7c0-0.3-0.2-0.5-0.5-0.5H72
		c-0.3,0-0.5,0.2-0.5,0.5v1.2c0,0.3,0.2,0.5,0.5,0.5h0.3v4H72c-0.3,0-0.5,0.2-0.5,0.5V59C71.5,59.3,71.7,59.5,72,59.5z M73.2,57.9
		v-5c0-0.3-0.2-0.5-0.5-0.5h-0.3v-0.2h2.4v5.7c0,0.3,0.2,0.5,0.5,0.5h0.3v0.2h-3.2v-0.2h0.3C73,58.4,73.2,58.1,73.2,57.9z"/>
</g>
<ellipse class="st0" cx="8.5" cy="101.8" rx="1.8" ry="1.8"/>
<ellipse class="st0" cx="13.2" cy="97.1" rx="1.8" ry="1.8"/>
<ellipse class="st0" cx="13.2" cy="106.5" rx="1.8" ry="1.8"/>
<ellipse class="st0" cx="3.8" cy="106.5" rx="1.8" ry="1.8"/>
<polygon class="st0" points="4.1,106.9 3.4,106.2 12.9,96.7 13.6,97.4 "/>
<polygon class="st0" points="12.9,106.9 8.1,102.1 8.8,101.4 13.6,106.2 "/>
<ellipse class="st0" cx="23.7" cy="101.8" rx="1.7" ry="1.8"/>
<ellipse class="st0" cx="33.2" cy="97.1" rx="1.7" ry="1.8"/>
<ellipse class="st0" cx="33.3" cy="106.5" rx="1.7" ry="1.8"/>
<polygon class="st0" points="24,102.2 23.5,101.4 33,96.6 33.4,97.5 "/>
<polygon class="st0" points="33,107 23.5,102.2 24,101.4 33.5,106.1 "/>
<path class="st0" d="M51.6,279.3c0.9,0,1.7-0.8,1.7-1.7h-3.4C49.8,278.5,50.6,279.3,51.6,279.3z M56.7,274.2v-4.3
	c0-2.6-1.4-4.8-3.9-5.4v-0.6c0-0.7-0.6-1.3-1.3-1.3s-1.3,0.6-1.3,1.3v0.6c-2.5,0.6-3.9,2.8-3.9,5.4v4.3l-1.7,1.7v0.9h13.7v-0.9
	L56.7,274.2z M55,275h-6.9v-5.1c0-2.1,1.3-3.9,3.4-3.9c2.1,0,3.4,1.7,3.4,3.9L55,275L55,275z"/>
<path class="st0" d="M47.8,263.5l-1.2-1.2c-2.1,1.6-3.4,4-3.5,6.7h1.7C44.8,266.8,46,264.8,47.8,263.5z"/>
<path class="st0" d="M58.4,269h1.7c-0.1-2.7-1.5-5.2-3.5-6.7l-1.2,1.2C57.1,264.8,58.3,266.8,58.4,269z"/>
<g>
	<path class="st1" d="M70,250.8v1c0,0.3-0.2,0.5-0.5,0.5h-1c-0.3,0-0.5-0.2-0.5-0.5v-1c0-0.3,0.2-0.5,0.5-0.5h1
		C69.8,250.3,70,250.5,70,250.8L70,250.8z M69.5,254.3h-1c-0.3,0-0.5,0.2-0.5,0.5v1c0,0.3,0.2,0.5,0.5,0.5h1c0.3,0,0.5-0.2,0.5-0.5
		v-1C70,254.5,69.8,254.3,69.5,254.3L69.5,254.3z M73.5,250.3h-1c-0.3,0-0.5,0.2-0.5,0.5v1c0,0.3,0.2,0.5,0.5,0.5h1
		c0.3,0,0.5-0.2,0.5-0.5v-1C74,250.5,73.8,250.3,73.5,250.3L73.5,250.3z M73.5,254.3h-1c-0.3,0-0.5,0.2-0.5,0.5v1
		c0,0.3,0.2,0.5,0.5,0.5h1c0.3,0,0.5-0.2,0.5-0.5v-1C74,254.5,73.8,254.3,73.5,254.3L73.5,254.3z M77.5,250.3h-1
		c-0.3,0-0.5,0.2-0.5,0.5v1c0,0.3,0.2,0.5,0.5,0.5h1c0.3,0,0.5-0.2,0.5-0.5v-1C78,250.5,77.8,250.3,77.5,250.3L77.5,250.3z
		 M77.5,254.3h-1c-0.3,0-0.5,0.2-0.5,0.5v1c0,0.3,0.2,0.5,0.5,0.5h1c0.3,0,0.5-0.2,0.5-0.5v-1C78,254.5,77.8,254.3,77.5,254.3
		L77.5,254.3z M68.5,246.3h1c0.3,0,0.5-0.2,0.5-0.5v-2c0-0.3-0.2-0.5-0.5-0.5h-1c-0.3,0-0.5,0.2-0.5,0.5v2
		C68,246.1,68.2,246.3,68.5,246.3L68.5,246.3z M81,247.3v10c0,1.1-0.9,2-2,2H67c-1.1,0-2-0.9-2-2v-10c0-1.1,0.9-2,2-2h0.5v0.5
		c0,0.6,0.4,1,1,1h1c0.6,0,1-0.4,1-1v-0.5h5v0.5c0,0.6,0.4,1,1,1h1c0.6,0,1-0.4,1-1v-0.5H79C80.1,245.3,81,246.2,81,247.3L81,247.3z
		 M80,249.3c0-0.6-0.4-1-1-1H67c-0.6,0-1,0.4-1,1v8c0,0.6,0.4,1,1,1h12c0.6,0,1-0.4,1-1V249.3z M76.5,246.3h1c0.3,0,0.5-0.2,0.5-0.5
		v-2c0-0.3-0.2-0.5-0.5-0.5h-1c-0.3,0-0.5,0.2-0.5,0.5v2C76,246.1,76.2,246.3,76.5,246.3L76.5,246.3z"/>
</g>
<path class="st1" d="M73.6,279.3c0.9,0,1.7-0.8,1.7-1.7h-3.4C71.8,278.5,72.6,279.3,73.6,279.3z M78.7,274.2v-4.3
	c0-2.6-1.4-4.8-3.9-5.4v-0.6c0-0.7-0.6-1.3-1.3-1.3s-1.3,0.6-1.3,1.3v0.6c-2.5,0.6-3.9,2.8-3.9,5.4v4.3l-1.7,1.7v0.9h13.7v-0.9
	L78.7,274.2z M77,275h-6.9v-5.1c0-2.1,1.3-3.9,3.4-3.9s3.4,1.7,3.4,3.9L77,275L77,275z"/>
<path class="st1" d="M69.8,263.5l-1.2-1.2c-2.1,1.6-3.4,4-3.5,6.7h1.7C66.8,266.8,68,264.8,69.8,263.5z"/>
<path class="st1" d="M80.4,269h1.7c-0.1-2.7-1.5-5.2-3.5-6.7l-1.2,1.2C79.1,264.8,80.3,266.8,80.4,269z"/>
<g>
	<path class="st0" d="M56.4,143.4v-1.2c0-2.7-2.2-4.9-4.9-4.9s-4.9,2.2-4.9,4.9v1.2H45v10.9h13v-10.9H56.4z M51.5,138.6
		c2,0,3.6,1.6,3.6,3.6v1.2h-0.8v-1.2c0-1.5-1.3-2.8-2.8-2.8s-2.8,1.3-2.8,2.8v1.2h-0.8v-1.2C47.9,140.2,49.5,138.6,51.5,138.6z
		 M50,142.2c0-0.8,0.7-1.5,1.5-1.5s1.5,0.7,1.5,1.5v1.2h-3V142.2z M46.3,153v-8.3h10.4v8.3H46.3z"/>
	<path class="st0" d="M51.5,146.9c-0.7,0-1.2,0.5-1.2,1.2c0,0.4,0.2,0.8,0.5,1v1.8h1.3v-1.8c0.3-0.2,0.5-0.6,0.5-1
		C52.7,147.4,52.2,146.9,51.5,146.9z"/>
</g>
<g>
	<path class="st1" d="M78.4,143.4v-1.2c0-2.7-2.2-4.9-4.9-4.9c-2.7,0-4.9,2.2-4.9,4.9v1.2H67v10.9h13v-10.9H78.4z M73.5,138.6
		c2,0,3.6,1.6,3.6,3.6v1.2h-0.8v-1.2c0-1.5-1.3-2.8-2.8-2.8s-2.8,1.3-2.8,2.8v1.2h-0.8v-1.2C69.9,140.2,71.5,138.6,73.5,138.6z
		 M72,142.2c0-0.8,0.7-1.5,1.5-1.5s1.5,0.7,1.5,1.5v1.2h-3V142.2z M68.3,153v-8.3h10.4v8.3H68.3z"/>
	<path class="st1" d="M73.5,146.9c-0.7,0-1.2,0.5-1.2,1.2c0,0.4,0.2,0.8,0.5,1v1.8h1.3v-1.8c0.3-0.2,0.5-0.6,0.5-1
		C74.7,147.4,74.2,146.9,73.5,146.9z"/>
</g>
<circle class="st2" cx="16.5" cy="224.8" r="12.5"/>
<circle class="st2" cx="16.5" cy="194.8" r="12.5"/>
<circle class="st2" cx="16.5" cy="254.8" r="12.5"/>
<path class="st3" d="M16.5,249.3c3,0,5.5,2.5,5.5,5.5c0,3-2.5,5.5-5.5,5.5s-5.5-2.5-5.5-5.5S13.5,249.3,16.5,249.3 M16.5,247.3
	c-4.1,0-7.5,3.4-7.5,7.5c0,4.1,3.4,7.5,7.5,7.5s7.5-3.4,7.5-7.5S20.6,247.3,16.5,247.3L16.5,247.3z"/>
<circle class="st2" cx="16.5" cy="285.8" r="12.5"/>
<g>
	<g>
		<path class="st3" d="M22.8,282.4l-1.9-2c-0.4-0.2-0.7,0-0.7,0.4v1.1h-6.1c-3.8,0-3.7,2.6-3.7,2.9v2.9l1.6-1.6v-1.2
			c0,0,0.1-1.3,2-1.3h6.1v1.1c0,0.4,0.3,0.6,0.7,0.4l1.9-2C23.1,282.9,23.1,282.7,22.8,282.4L22.8,282.4z M22.6,284.9l-1.6,1.6v1.2
			c0,0-0.1,1.3-2,1.3h-6.1v-1.1c0-0.4-0.3-0.6-0.7-0.4l-1.9,2c-0.3,0.3-0.3,0.5,0,0.8l1.9,2c0.4,0.2,0.7,0,0.7-0.4v-1.1H19
			c3.8,0,3.7-2.6,3.7-2.9L22.6,284.9L22.6,284.9z"/>
	</g>
</g>
<g>
	<path class="st0" d="M51.3,157.5h-5.8c-0.3,0-0.6,0.2-0.6,0.6v1.2c0,0.4,0.2,0.6,0.6,0.6h5.8c0.3,0,0.6-0.2,0.6-0.6v-1.2
		C51.9,157.7,51.7,157.5,51.3,157.5L51.3,157.5z"/>
	<path class="st0" d="M51.3,162.1h-5.8c-0.3,0-0.6,0.2-0.6,0.6v1.2c0,0.4,0.2,0.6,0.6,0.6h5.8c0.3,0,0.6-0.2,0.6-0.6v-1.2
		C51.9,162.4,51.7,162.1,51.3,162.1L51.3,162.1z"/>
	<path class="st0" d="M51.3,166.8h-5.8c-0.3,0-0.6,0.2-0.6,0.6v1.2c0,0.4,0.2,0.6,0.6,0.6h5.8c0.3,0,0.6-0.2,0.6-0.6v-1.2
		C51.9,167.1,51.7,166.8,51.3,166.8L51.3,166.8z"/>
	<path class="st0" d="M59.8,164.7l-0.8-0.8c-0.1-0.1-0.3-0.2-0.4-0.2c-0.2,0-0.3,0.1-0.4,0.2l-1.2,1.2c-0.2,0.2-0.5,0.1-0.5-0.2V157
		c0-0.3-0.3-0.6-0.6-0.6h-1.2c-0.3,0-0.6,0.3-0.6,0.6v12.9c0,0.2,0.1,0.3,0.2,0.4c0.1,0.1,0.3,0.2,0.4,0.2c0.2,0,0.3-0.1,0.4-0.2
		l4.6-4.7c0.1-0.1,0.2-0.2,0.2-0.4C60,164.9,59.9,164.8,59.8,164.7L59.8,164.7z"/>
</g>
<g>
	<path class="st1" d="M73.3,157.5h-5.8c-0.3,0-0.6,0.2-0.6,0.6v1.2c0,0.4,0.2,0.6,0.6,0.6h5.8c0.3,0,0.6-0.2,0.6-0.6v-1.2
		C73.9,157.7,73.7,157.5,73.3,157.5L73.3,157.5z"/>
	<path class="st1" d="M73.3,162.1h-5.8c-0.3,0-0.6,0.2-0.6,0.6v1.2c0,0.4,0.2,0.6,0.6,0.6h5.8c0.3,0,0.6-0.2,0.6-0.6v-1.2
		C73.9,162.4,73.7,162.1,73.3,162.1L73.3,162.1z"/>
	<path class="st1" d="M73.3,166.8h-5.8c-0.3,0-0.6,0.2-0.6,0.6v1.2c0,0.4,0.2,0.6,0.6,0.6h5.8c0.3,0,0.6-0.2,0.6-0.6v-1.2
		C73.9,167.1,73.7,166.8,73.3,166.8L73.3,166.8z"/>
	<path class="st1" d="M81.8,162c0.1-0.1,0.2-0.2,0.2-0.4s-0.1-0.3-0.2-0.4l-4.6-4.7c-0.1-0.1-0.2-0.2-0.4-0.2
		c-0.1,0-0.3,0.1-0.4,0.2c-0.1,0.1-0.2,0.2-0.2,0.4v12.9c0,0.3,0.3,0.6,0.6,0.6H78c0.3,0,0.6-0.3,0.6-0.6v-7.9
		c0-0.3,0.3-0.4,0.5-0.2l1.2,1.2c0.1,0.1,0.2,0.2,0.4,0.2c0.1,0,0.3-0.1,0.4-0.2L81.8,162L81.8,162z"/>
</g>
<g>
	<path class="st3" d="M16.5,220.3c-5.9,0-7.5,2-7.5,4.5s1.6,4.5,7.5,4.5s7.5-2,7.5-4.5S22.4,220.3,16.5,220.3L16.5,220.3z
		 M12.4,226.1c-0.8,0-1.4-0.6-1.4-1.3s0.6-1.3,1.4-1.3c0.8,0,1.4,0.6,1.4,1.3C13.8,225.5,13.2,226.1,12.4,226.1L12.4,226.1z
		 M16.5,226.1c-0.8,0-1.4-0.6-1.4-1.3s0.6-1.3,1.4-1.3s1.4,0.6,1.4,1.3S17.3,226.1,16.5,226.1L16.5,226.1z M20.6,226.1
		c-0.8,0-1.4-0.6-1.4-1.3s0.6-1.3,1.4-1.3s1.4,0.6,1.4,1.3S21.3,226.1,20.6,226.1L20.6,226.1z"/>
</g>
<circle class="st2" cx="16.5" cy="315.8" r="12.5"/>
<circle class="st2" cx="16.5" cy="346.8" r="12.5"/>
<circle class="st4" cx="16.5" cy="376.8" r="12.5"/>
<g>
	<path class="st3" d="M16.2,309.4c-3.7,0.1-6.7,3.2-6.7,6.9c0,3.8,3.1,7,7,7c3.8,0,7-3.1,7-7c0-0.8-0.2-1.7-0.4-2.5l-1.4,0.5
		c0.2,0.6,0.4,1.3,0.4,1.9c0,3-2.4,5.4-5.4,5.4s-5.4-2.4-5.4-5.4c0-2.9,2.3-5.3,5.2-5.4v2l2.8-2.8l-2.8-2.8v2.2L16.2,309.4
		L16.2,309.4z"/>
	<path class="st3" d="M14.6,316.3c0-1.1,0.9-1.9,1.9-1.9c1.1,0,1.9,0.9,1.9,1.9c0,1.1-0.9,1.9-1.9,1.9
		C15.4,318.2,14.6,317.3,14.6,316.3L14.6,316.3z"/>
</g>
<path class="st3" d="M20.5,344.1V342h1.4v-1.7h-11v1.7h1.4v2.1c0,0.9,0.7,1.8,2.2,2.7c-1.5,0.8-2.2,1.7-2.2,2.7v2.1h-1.4v1.7h11
	v-1.7h-1.4v-2.1c0-0.9-0.7-1.8-2.2-2.7C19.7,345.9,20.5,345,20.5,344.1z M18.6,351.5h-4.4v-2.1c0-0.4,1.1-1.3,2.2-1.8
	c1.3,0.6,2.2,1.4,2.2,1.8C18.6,349.4,18.6,351.5,18.6,351.5z M16.4,345.9c-1.1-0.5-2.2-1.4-2.2-1.8V342h4.4v2.1
	C18.6,344.5,17.7,345.3,16.4,345.9z"/>
<g>
	<g>
		<path class="st0" d="M59.9,25.2L59,24.3c-0.2-0.2-0.5-0.2-0.7,0s-0.2,0.5,0,0.7h-1.1c-0.3,0-0.5,0.2-0.5,0.5s0.2,0.5,0.5,0.5h1.1
			c-0.2,0.2-0.2,0.5,0,0.7c0.1,0.1,0.2,0.2,0.4,0.2s0.3-0.1,0.4-0.2l0.9-0.9C60,25.7,60,25.4,59.9,25.2L59.9,25.2z"/>
	</g>
	<path class="st0" d="M52.8,26.8c0.1,0.1,0.2,0.2,0.4,0.2s0.3-0.1,0.4-0.2c0.2-0.2,0.2-0.5,0-0.7h1.1c0.3,0,0.5-0.2,0.5-0.5
		s-0.2-0.5-0.5-0.5h-1.1c0.2-0.2,0.2-0.5,0-0.7s-0.5-0.2-0.7,0L52,25.2c-0.2,0.2-0.2,0.5,0,0.7L52.8,26.8z"/>
	<g>
		<path class="st0" d="M55.9,26.3c-0.3,0-0.5,0.2-0.5,0.5V28c-0.2-0.2-0.5-0.2-0.7,0s-0.2,0.5,0,0.7l0.9,0.9
			c0.1,0.1,0.2,0.2,0.4,0.2c0.1,0,0.3-0.1,0.4-0.2l0.9-0.9c0.2-0.2,0.2-0.5,0-0.7s-0.5-0.2-0.7,0v-1.2
			C56.4,26.6,56.2,26.3,55.9,26.3L55.9,26.3z"/>
		<path class="st0" d="M55.4,23.1v1.2c0,0.3,0.2,0.5,0.5,0.5s0.5-0.2,0.5-0.5v-1.2c0.1,0.1,0.2,0.1,0.4,0.1c0.1,0,0.3-0.1,0.4-0.2
			c0.2-0.2,0.2-0.5,0-0.7l-0.9-0.9c-0.2-0.2-0.5-0.2-0.7,0l-0.9,0.9c-0.2,0.2-0.2,0.5,0,0.7C54.9,23.3,55.2,23.3,55.4,23.1
			L55.4,23.1z"/>
		<path class="st0" d="M55.4,31c-0.3,0-0.6,0.1-0.8,0.2c-0.4-0.8-1.1-1.3-2-1.3c-0.3,0-0.6,0.1-0.9,0.2c-0.4-0.7-1.1-1.2-2-1.2
			c-0.2,0-0.4,0-0.6,0.1c0-0.3,0-0.5,0-0.8v-2.1c0-0.6,0-0.8,0-1l0,0c0-1.2-1-2.2-2.2-2.2s-2.2,1-2.2,2.3v7.1
			c-0.8,0.3-1.6,1.1-1.6,2.2c0,1.8,0.1,4,1.6,5.7c1.3,1.4,3.3,2,6.1,2c2.6,0,4.5-0.8,5.6-2.3c0.8-1.1,1.3-2.6,1.3-4.2v-2.4
			C57.6,32.1,56.6,31,55.4,31L55.4,31z M50.7,41.2c-6,0-6.8-3.2-6.7-6.6c0-0.8,0.7-1.3,1.3-1.3v1.5c0,0.2,0.1,0.2,0.2,0.2
			c0,0,0.2,0,0.2-0.2v-9.5c0-0.7,0.6-1.3,1.2-1.3c0.6,0,1.2,0.5,1.2,1.1c0,0,0,4.7,0,5.9l0,0v0.2c0,0.1,0.1,0.2,0.2,0.2
			c0.1,0,0.2-0.1,0.2-0.2v-0.1c0-0.7,0.6-1.3,1.2-1.3c0.7,0,1.2,0.6,1.2,1.3V32c0,0.1,0.1,0.2,0.2,0.2c0.1,0,0.2-0.1,0.2-0.2v-0.1
			c0-0.6,0.6-1.1,1.2-1.1c0.7,0,1.2,0.6,1.2,1.3V33c0,0.1,0.1,0.2,0.2,0.2c0.1,0,0.2-0.1,0.2-0.2v-0.1c0-0.6,0.6-1,1.2-1
			c0.7,0,1.2,0.6,1.2,1.3v2.4C56.6,37.9,55.8,41.2,50.7,41.2L50.7,41.2z"/>
	</g>
</g>
<g>
	<g>
		<path class="st1" d="M81.9,25.2L81,24.3c-0.2-0.2-0.5-0.2-0.7,0s-0.2,0.5,0,0.7h-1.1c-0.3,0-0.5,0.2-0.5,0.5s0.2,0.5,0.5,0.5h1.1
			c-0.2,0.2-0.2,0.5,0,0.7c0.1,0.1,0.2,0.2,0.4,0.2s0.3-0.1,0.4-0.2l0.9-0.9C82.1,25.7,82.1,25.4,81.9,25.2L81.9,25.2z"/>
	</g>
	<path class="st1" d="M74.8,26.8c0.1,0.1,0.2,0.2,0.4,0.2s0.3-0.1,0.4-0.2c0.2-0.2,0.2-0.5,0-0.7h1.1c0.3,0,0.5-0.2,0.5-0.5
		s-0.2-0.5-0.5-0.5h-1.1c0.2-0.2,0.2-0.5,0-0.7s-0.5-0.2-0.7,0L74,25.2c-0.2,0.2-0.2,0.5,0,0.7L74.8,26.8z"/>
	<g>
		<path class="st1" d="M77.9,26.3c-0.3,0-0.5,0.2-0.5,0.5V28c-0.2-0.2-0.5-0.2-0.7,0s-0.2,0.5,0,0.7l0.9,0.9
			c0.1,0.1,0.2,0.2,0.4,0.2c0.1,0,0.3-0.1,0.4-0.2l0.9-0.9c0.2-0.2,0.2-0.5,0-0.7s-0.5-0.2-0.7,0v-1.2
			C78.4,26.6,78.2,26.3,77.9,26.3L77.9,26.3z"/>
		<path class="st1" d="M77.4,23.1v1.2c0,0.3,0.2,0.5,0.5,0.5s0.5-0.2,0.5-0.5v-1.2c0.1,0.1,0.2,0.1,0.4,0.1c0.1,0,0.3-0.1,0.4-0.2
			c0.2-0.2,0.2-0.5,0-0.7l-0.9-0.9c-0.2-0.2-0.5-0.2-0.7,0l-0.9,0.9c-0.2,0.2-0.2,0.5,0,0.7C76.9,23.3,77.2,23.3,77.4,23.1
			L77.4,23.1z"/>
		<path class="st1" d="M77.4,31c-0.3,0-0.6,0.1-0.8,0.2c-0.4-0.8-1.1-1.3-2-1.3c-0.3,0-0.6,0.1-0.9,0.2c-0.4-0.7-1.1-1.2-2-1.2
			c-0.2,0-0.4,0-0.6,0.1c0-0.3,0-0.5,0-0.8v-2.1c0-0.6,0-0.8,0-1l0,0c0-1.2-1-2.2-2.2-2.2s-2.2,1-2.2,2.3v7.1
			c-0.8,0.3-1.6,1.1-1.6,2.2c0,1.8,0.1,4,1.6,5.7c1.3,1.4,3.3,2,6.1,2c2.6,0,4.5-0.8,5.6-2.3c0.8-1.1,1.3-2.6,1.3-4.2v-2.4
			C79.6,32.1,78.6,31,77.4,31L77.4,31z M72.8,41.2c-6,0-6.8-3.2-6.7-6.6c0-0.8,0.7-1.3,1.3-1.3v1.5c0,0.2,0.1,0.2,0.2,0.2
			c0,0,0.2,0,0.2-0.2v-9.5c0-0.7,0.6-1.3,1.2-1.3s1.2,0.5,1.2,1.1c0,0,0,4.7,0,5.9l0,0v0.2c0,0.1,0.1,0.2,0.2,0.2s0.2-0.1,0.2-0.2
			v-0.1c0-0.7,0.6-1.3,1.2-1.3c0.7,0,1.2,0.6,1.2,1.3V32c0,0.1,0.1,0.2,0.2,0.2s0.2-0.1,0.2-0.2v-0.1c0-0.6,0.6-1.1,1.2-1.1
			c0.7,0,1.2,0.6,1.2,1.3V33c0,0.1,0.1,0.2,0.2,0.2s0.2-0.1,0.2-0.2v-0.1c0-0.6,0.6-1,1.2-1c0.7,0,1.2,0.6,1.2,1.3v2.4
			C78.6,37.9,77.8,41.2,72.8,41.2L72.8,41.2z"/>
	</g>
</g>
<g>
	<path class="st3" d="M17.6,258.3H16v-4.5h-1.7v-1.1h0.2c1,0,1.7-0.4,1.9-1.4h1.2V258.3z"/>
</g>
<rect x="85.1" y="276.7" transform="matrix(0.7071 -0.7071 0.7071 0.7071 -168.8606 146.9412)" class="st0" width="15.7" height="1.2"/>
<rect x="92.4" y="269.4" transform="matrix(0.7071 -0.7071 0.7071 0.7071 -168.8106 146.9667)" class="st0" width="1.2" height="15.7"/>
<rect x="85.1" y="290.7" transform="matrix(0.7071 -0.7071 0.7071 0.7071 -178.76 151.0416)" class="st1" width="15.7" height="1.2"/>
<rect x="92.4" y="283.4" transform="matrix(0.7071 -0.7071 0.7071 0.7071 -178.71 151.0672)" class="st1" width="1.2" height="15.7"/>
<g>
	<path class="st3" d="M24,189.9c0-1-0.8-1.9-1.9-1.9c-1,0-1.9,0.8-1.9,1.9c0,0.9,0.7,1.7,1.5,1.9h-0.1v2.3H17v-2.3h-0.1
		c0.9-0.2,1.5-0.9,1.5-1.9s-0.8-1.9-1.9-1.9c-1,0-1.9,0.8-1.9,1.9c0,0.9,0.7,1.7,1.5,1.9H16v2.3h-4.7v-2.3h-0.1
		c0.9-0.2,1.5-0.9,1.5-1.9s-0.8-1.9-1.9-1.9c-1,0-1.9,0.8-1.9,1.9c0,0.9,0.7,1.7,1.5,1.9h-0.1v2.3v0.5v0.5H16v2.6h-1.4l1.9,2.1
		l1.9-2.1H17v-2.6h5.6v-0.5v-0.5v-2.3h-0.1C23.4,191.6,24,190.8,24,189.9z M15.6,189.9c0-0.5,0.4-0.9,0.9-0.9s0.9,0.4,0.9,0.9
		s-0.4,0.9-0.9,0.9S15.6,190.4,15.6,189.9z M9.9,189.9c0-0.5,0.4-0.9,0.9-0.9s0.9,0.4,0.9,0.9s-0.4,0.9-0.9,0.9
		C10.4,190.8,9.9,190.4,9.9,189.9z M22.1,190.8c-0.5,0-0.9-0.4-0.9-0.9s0.4-0.9,0.9-0.9s0.9,0.4,0.9,0.9
		C23.1,190.4,22.6,190.8,22.1,190.8z"/>
	<path class="st3" d="M18.4,199.8h-3.8c-1,0-1.9,0.8-1.9,1.9c0,1,0.8,1.9,1.9,1.9h3.8c1,0,1.9-0.8,1.9-1.9
		C20.3,200.7,19.4,199.8,18.4,199.8z M18.4,202.7h-3.8c-0.5,0-0.9-0.4-0.9-0.9s0.4-0.9,0.9-0.9h3.8c0.5,0,0.9,0.4,0.9,0.9
		C19.3,202.2,18.9,202.7,18.4,202.7z"/>
</g>
<path class="st0" d="M102,2.8c4.1,0,7.5,3.4,7.5,7.5s-3.4,7.5-7.5,7.5s-7.5-3.4-7.5-7.5S97.9,2.8,102,2.8 M102,1.3c-5,0-9,4-9,9
	s4,9,9,9s9-4,9-9S107,1.3,102,1.3L102,1.3z"/>
<rect x="85.8" y="19.8" transform="matrix(0.7071 -0.7071 0.7071 0.7071 12.3333 70.8992)" class="st0" width="11.9" height="1.5"/>
<path class="st1" d="M102,28.8c4.1,0,7.5,3.4,7.5,7.5s-3.4,7.5-7.5,7.5s-7.5-3.4-7.5-7.5S97.9,28.8,102,28.8 M102,27.3c-5,0-9,4-9,9
	s4,9,9,9s9-4,9-9S107,27.3,102,27.3L102,27.3z"/>
<rect x="85.8" y="45.8" transform="matrix(0.7071 -0.7071 0.7071 0.7071 -6.0513 78.5145)" class="st1" width="11.9" height="1.5"/>
<path class="st0" d="M54.3,2.4c3.1,0,5.6,2.5,5.6,5.6s-2.5,5.6-5.6,5.6s-5.6-2.5-5.6-5.6S51.3,2.4,54.3,2.4 M54.3,1.3
	c-3.7,0-6.7,3-6.7,6.7s3,6.7,6.7,6.7S61,11.7,61,8S58,1.3,54.3,1.3L54.3,1.3z"/>
<rect x="42.3" y="15" transform="matrix(0.7071 -0.7071 0.7071 0.7071 2.6934 37.6114)" class="st0" width="8.9" height="1.1"/>
<rect x="51" y="7.9" class="st0" width="6" height="1"/>
<path class="st1" d="M76.2,2.4c3.1,0,5.6,2.5,5.6,5.6s-2.5,5.6-5.6,5.6s-5.6-2.5-5.6-5.6S73.1,2.4,76.2,2.4 M76.2,1.3
	c-3.7,0-6.7,3-6.7,6.7s3,6.7,6.7,6.7s6.7-3,6.7-6.7S79.9,1.3,76.2,1.3L76.2,1.3z"/>
<rect x="64.1" y="15.1" transform="matrix(0.7071 -0.7071 0.7071 0.7071 9.0016 53.0566)" class="st1" width="8.9" height="1.1"/>
<rect x="72.8" y="7.9" class="st1" width="6" height="1"/>
<g>
	<g>
		<path class="st0" d="M57.5,201.7h-2.2l0.5-0.5c0.2-0.2,0.2-0.5,0-0.7s-0.5-0.2-0.7,0l-1.4,1.4c-0.1,0.1-0.1,0.2-0.1,0.3
			s0.1,0.2,0.1,0.3l1.4,1.4c0.1,0.1,0.2,0.1,0.3,0.1s0.2,0,0.3-0.1c0.2-0.2,0.2-0.5,0-0.7l-0.5-0.5h2.2c1.4,0,2.6,1.2,2.6,2.6v1.6
			c0,0.3,0.2,0.5,0.5,0.5s0.5-0.2,0.5-0.5v-1.6C61,203.2,59.4,201.7,57.5,201.7L57.5,201.7z"/>
	</g>
	<path class="st0" d="M60.5,209.5h-7.8c-0.3,0-0.5,0.2-0.5,0.5v7.8c0,0.3,0.2,0.5,0.5,0.5h7.8c0.3,0,0.5-0.2,0.5-0.5V210
		C61,209.7,60.7,209.5,60.5,209.5L60.5,209.5z M60,217.3h-6.9v-6.9H60V217.3z"/>
	<path class="st0" d="M48.9,214.8c-0.2-0.2-0.5-0.2-0.7,0s-0.2,0.5,0,0.7l0.5,0.5h-2.2c-1.4,0-2.6-1.2-2.6-2.6v-1.6
		c0-0.3-0.2-0.5-0.5-0.5s-0.5,0.2-0.5,0.5v1.6c0,2,1.6,3.5,3.5,3.5h2.2l-0.5,0.5c-0.2,0.2-0.2,0.5,0,0.7c0.1,0.1,0.2,0.1,0.3,0.1
		s0.2,0,0.3-0.1l1.4-1.4c0.2-0.2,0.2-0.5,0-0.7L48.9,214.8z"/>
	<path class="st0" d="M43.5,201.3c0.1,0,0.3-0.1,0.3-0.1c0.1-0.1,0.1-0.2,0.1-0.3s-0.1-0.3-0.1-0.3c-0.1-0.1-0.2-0.1-0.3-0.1
		s-0.3,0.1-0.3,0.1c-0.1,0.1-0.1,0.2-0.1,0.3s0.1,0.3,0.1,0.3C43.3,201.2,43.4,201.3,43.5,201.3L43.5,201.3z"/>
	<path class="st0" d="M47.5,201.3c0.3,0,0.5-0.2,0.5-0.5s-0.2-0.5-0.5-0.5s-0.5,0.2-0.5,0.5C47,201,47.2,201.3,47.5,201.3
		L47.5,201.3z"/>
	<path class="st0" d="M45.5,201.3c0.3,0,0.5-0.2,0.5-0.5s-0.2-0.5-0.5-0.5s-0.5,0.2-0.5,0.5C45,201,45.2,201.3,45.5,201.3
		L45.5,201.3z"/>
	<path class="st0" d="M49.4,201.3c0.3,0,0.5-0.2,0.5-0.5s-0.2-0.5-0.5-0.5s-0.5,0.2-0.5,0.5C48.9,201,49.2,201.3,49.4,201.3
		L49.4,201.3z"/>
	<path class="st0" d="M51.4,200.3c-0.1,0-0.3,0.1-0.3,0.1c-0.1,0.1-0.1,0.2-0.1,0.3s0.1,0.3,0.1,0.3c0.1,0.1,0.2,0.1,0.3,0.1
		s0.3-0.1,0.3-0.1c0.1-0.1,0.1-0.2,0.1-0.3s-0.1-0.3-0.1-0.3C51.6,200.4,51.5,200.3,51.4,200.3L51.4,200.3z"/>
	<path class="st0" d="M51.4,206.2c-0.3,0-0.5,0.2-0.5,0.5s0.2,0.5,0.5,0.5s0.5-0.2,0.5-0.5S51.7,206.2,51.4,206.2L51.4,206.2z"/>
	<path class="st0" d="M51.4,204.2c-0.3,0-0.5,0.2-0.5,0.5s0.2,0.5,0.5,0.5s0.5-0.2,0.5-0.5S51.7,204.2,51.4,204.2L51.4,204.2z"/>
	<path class="st0" d="M51.4,202.3c-0.3,0-0.5,0.2-0.5,0.5s0.2,0.5,0.5,0.5s0.5-0.2,0.5-0.5S51.7,202.3,51.4,202.3L51.4,202.3z"/>
	<path class="st0" d="M51.4,208.1c-0.1,0-0.3,0.1-0.3,0.1c-0.1,0.1-0.1,0.2-0.1,0.3s0.1,0.3,0.1,0.3c0.1,0.1,0.2,0.1,0.3,0.1
		s0.3-0.1,0.3-0.1c0.1-0.1,0.1-0.2,0.1-0.3s-0.1-0.3-0.1-0.3C51.6,208.2,51.5,208.1,51.4,208.1L51.4,208.1z"/>
	<path class="st0" d="M49.4,209.1c0.3,0,0.5-0.2,0.5-0.5s-0.2-0.5-0.5-0.5s-0.5,0.2-0.5,0.5C48.9,208.9,49.2,209.1,49.4,209.1
		L49.4,209.1z"/>
	<path class="st0" d="M47.5,209.1c0.3,0,0.5-0.2,0.5-0.5s-0.2-0.5-0.5-0.5s-0.5,0.2-0.5,0.5C47,208.9,47.2,209.1,47.5,209.1
		L47.5,209.1z"/>
	<path class="st0" d="M45.5,209.1c0.3,0,0.5-0.2,0.5-0.5s-0.2-0.5-0.5-0.5s-0.5,0.2-0.5,0.5C45,208.9,45.2,209.1,45.5,209.1
		L45.5,209.1z"/>
	<path class="st0" d="M43.5,209.1c0.1,0,0.3-0.1,0.3-0.1c0.1-0.1,0.1-0.2,0.1-0.3s-0.1-0.3-0.1-0.3c-0.1-0.1-0.2-0.1-0.3-0.1
		s-0.3,0.1-0.3,0.1c-0.1,0.1-0.1,0.2-0.1,0.3s0.1,0.3,0.1,0.3C43.3,209.1,43.4,209.1,43.5,209.1L43.5,209.1z"/>
	<path class="st0" d="M43.5,207.1c0.3,0,0.5-0.2,0.5-0.5s-0.2-0.5-0.5-0.5s-0.5,0.2-0.5,0.5C43.1,206.9,43.3,207.1,43.5,207.1
		L43.5,207.1z"/>
	<path class="st0" d="M43.5,205.2c0.3,0,0.5-0.2,0.5-0.5s-0.2-0.5-0.5-0.5s-0.5,0.2-0.5,0.5C43.1,205,43.3,205.2,43.5,205.2
		L43.5,205.2z"/>
	<path class="st0" d="M43.5,203.2c0.3,0,0.5-0.2,0.5-0.5s-0.2-0.5-0.5-0.5s-0.5,0.2-0.5,0.5C43.1,203,43.3,203.2,43.5,203.2
		L43.5,203.2z"/>
</g>
<g>
	<g>
		<path class="st1" d="M79.4,201.7h-2.2l0.5-0.5c0.2-0.2,0.2-0.5,0-0.7s-0.5-0.2-0.7,0l-1.4,1.4c-0.1,0.1-0.1,0.2-0.1,0.3
			s0.1,0.2,0.1,0.3l1.4,1.4c0.1,0.1,0.2,0.1,0.3,0.1c0.1,0,0.2,0,0.3-0.1c0.2-0.2,0.2-0.5,0-0.7l-0.5-0.5h2.2c1.4,0,2.6,1.2,2.6,2.6
			v1.6c0,0.3,0.2,0.5,0.5,0.5s0.5-0.2,0.5-0.5v-1.6C83,203.2,81.4,201.7,79.4,201.7L79.4,201.7z"/>
	</g>
	<path class="st1" d="M82.5,209.5h-7.8c-0.3,0-0.5,0.2-0.5,0.5v7.8c0,0.3,0.2,0.5,0.5,0.5h7.8c0.3,0,0.5-0.2,0.5-0.5V210
		C82.9,209.7,82.7,209.5,82.5,209.5L82.5,209.5z M82,217.3h-6.9v-6.9H82V217.3z"/>
	<path class="st1" d="M70.9,214.8c-0.2-0.2-0.5-0.2-0.7,0s-0.2,0.5,0,0.7l0.5,0.5h-2.2c-1.4,0-2.6-1.2-2.6-2.6v-1.6
		c0-0.3-0.2-0.5-0.5-0.5s-0.5,0.2-0.5,0.5v1.6c0,2,1.6,3.5,3.5,3.5h2.2l-0.5,0.5c-0.2,0.2-0.2,0.5,0,0.7c0.1,0.1,0.2,0.1,0.3,0.1
		c0.1,0,0.2,0,0.3-0.1l1.4-1.4c0.2-0.2,0.2-0.5,0-0.7L70.9,214.8z"/>
	<path class="st1" d="M65.5,201.3c0.1,0,0.3-0.1,0.3-0.1c0.1-0.1,0.1-0.2,0.1-0.3s-0.1-0.3-0.1-0.3c-0.1-0.1-0.2-0.1-0.3-0.1
		c-0.1,0-0.3,0.1-0.3,0.1c-0.1,0.1-0.1,0.2-0.1,0.3s0.1,0.3,0.1,0.3C65.3,201.2,65.4,201.3,65.5,201.3L65.5,201.3z"/>
	<path class="st1" d="M69.4,201.3c0.3,0,0.5-0.2,0.5-0.5s-0.2-0.5-0.5-0.5s-0.5,0.2-0.5,0.5C69,201,69.2,201.3,69.4,201.3
		L69.4,201.3z"/>
	<path class="st1" d="M67.5,201.3c0.3,0,0.5-0.2,0.5-0.5s-0.2-0.5-0.5-0.5s-0.5,0.2-0.5,0.5C67,201,67.2,201.3,67.5,201.3
		L67.5,201.3z"/>
	<path class="st1" d="M71.4,201.3c0.3,0,0.5-0.2,0.5-0.5s-0.2-0.5-0.5-0.5s-0.5,0.2-0.5,0.5C70.9,201,71.1,201.3,71.4,201.3
		L71.4,201.3z"/>
	<path class="st1" d="M73.4,200.3c-0.1,0-0.3,0.1-0.3,0.1c-0.1,0.1-0.1,0.2-0.1,0.3s0.1,0.3,0.1,0.3c0.1,0.1,0.2,0.1,0.3,0.1
		s0.3-0.1,0.3-0.1c0.1-0.1,0.1-0.2,0.1-0.3s-0.1-0.3-0.1-0.3C73.6,200.4,73.5,200.3,73.4,200.3L73.4,200.3z"/>
	<path class="st1" d="M73.4,206.2c-0.3,0-0.5,0.2-0.5,0.5s0.2,0.5,0.5,0.5s0.5-0.2,0.5-0.5C73.8,206.4,73.6,206.2,73.4,206.2
		L73.4,206.2z"/>
	<path class="st1" d="M73.4,204.2c-0.3,0-0.5,0.2-0.5,0.5s0.2,0.5,0.5,0.5s0.5-0.2,0.5-0.5C73.8,204.4,73.6,204.2,73.4,204.2
		L73.4,204.2z"/>
	<path class="st1" d="M73.4,202.3c-0.3,0-0.5,0.2-0.5,0.5s0.2,0.5,0.5,0.5s0.5-0.2,0.5-0.5C73.8,202.5,73.6,202.3,73.4,202.3
		L73.4,202.3z"/>
	<path class="st1" d="M73.4,208.1c-0.1,0-0.3,0.1-0.3,0.1c-0.1,0.1-0.1,0.2-0.1,0.3s0.1,0.3,0.1,0.3c0.1,0.1,0.2,0.1,0.3,0.1
		s0.3-0.1,0.3-0.1c0.1-0.1,0.1-0.2,0.1-0.3s-0.1-0.3-0.1-0.3C73.6,208.2,73.5,208.1,73.4,208.1L73.4,208.1z"/>
	<path class="st1" d="M71.4,209.1c0.3,0,0.5-0.2,0.5-0.5s-0.2-0.5-0.5-0.5s-0.5,0.2-0.5,0.5C70.9,208.9,71.1,209.1,71.4,209.1
		L71.4,209.1z"/>
	<path class="st1" d="M69.4,209.1c0.3,0,0.5-0.2,0.5-0.5s-0.2-0.5-0.5-0.5s-0.5,0.2-0.5,0.5C69,208.9,69.2,209.1,69.4,209.1
		L69.4,209.1z"/>
	<path class="st1" d="M67.5,209.1c0.3,0,0.5-0.2,0.5-0.5s-0.2-0.5-0.5-0.5s-0.5,0.2-0.5,0.5C67,208.9,67.2,209.1,67.5,209.1
		L67.5,209.1z"/>
	<path class="st1" d="M65.5,209.1c0.1,0,0.3-0.1,0.3-0.1c0.1-0.1,0.1-0.2,0.1-0.3s-0.1-0.3-0.1-0.3c-0.1-0.1-0.2-0.1-0.3-0.1
		c-0.1,0-0.3,0.1-0.3,0.1c-0.1,0.1-0.1,0.2-0.1,0.3s0.1,0.3,0.1,0.3C65.3,209.1,65.4,209.1,65.5,209.1L65.5,209.1z"/>
	<path class="st1" d="M65.5,207.1c0.3,0,0.5-0.2,0.5-0.5s-0.2-0.5-0.5-0.5s-0.5,0.2-0.5,0.5C65,206.9,65.3,207.1,65.5,207.1
		L65.5,207.1z"/>
	<path class="st1" d="M65.5,205.2c0.3,0,0.5-0.2,0.5-0.5s-0.2-0.5-0.5-0.5s-0.5,0.2-0.5,0.5S65.3,205.2,65.5,205.2L65.5,205.2z"/>
	<path class="st1" d="M65.5,203.2c0.3,0,0.5-0.2,0.5-0.5s-0.2-0.5-0.5-0.5s-0.5,0.2-0.5,0.5S65.3,203.2,65.5,203.2L65.5,203.2z"/>
</g>
<circle class="st0" cx="44.2" cy="192.8" r="2.1"/>
<circle class="st0" cx="58.9" cy="192.8" r="2.1"/>
<circle class="st0" cx="51.5" cy="192.8" r="2.1"/>
<circle class="st1" cx="66.1" cy="192.8" r="2.1"/>
<circle class="st1" cx="80.9" cy="192.8" r="2.1"/>
<circle class="st1" cx="73.5" cy="192.8" r="2.1"/>
<path class="st0" d="M49.3,175.6l5.5,3.7l-5.5,3.7V175.6 M48.1,173.3v12l8.9-6L48.1,173.3L48.1,173.3z"/>
<path class="st1" d="M71.1,175.6l5.5,3.7l-5.5,3.7V175.6 M69.9,173.3v12l8.9-6L69.9,173.3L69.9,173.3z"/>
<path class="st0" d="M52.6,283.4c2.9,0,5.3,2.4,5.3,5.4s-2.4,5.4-5.3,5.4c-2.9,0-5.3-2.4-5.3-5.4S49.7,283.4,52.6,283.4 M52.6,282.3
	c-3.5,0-6.4,2.9-6.4,6.4c0,3.6,2.9,6.4,6.4,6.4s6.4-2.9,6.4-6.4S56.1,282.3,52.6,282.3L52.6,282.3z"/>
<polygon class="st0" points="42.8,299.5 42,298.7 48,292.7 48.7,293.5 "/>
<path class="st0" d="M74.6,283.4c2.9,0,5.3,2.4,5.3,5.4s-2.4,5.4-5.3,5.4s-5.3-2.4-5.3-5.4C69.3,285.8,71.7,283.4,74.6,283.4
	 M74.6,282.3c-3.5,0-6.4,2.9-6.4,6.4c0,3.6,2.9,6.4,6.4,6.4s6.4-2.9,6.4-6.4S78.1,282.3,74.6,282.3L74.6,282.3z"/>
<polygon class="st0" points="64.8,299.5 64,298.7 70,292.7 70.7,293.5 "/>
<rect x="71.5" y="288.6" class="st0" width="5.7" height="1"/>
<g>
	<path class="st0" d="M10.1,13.3c3.3,0,6-2.7,6-6s-2.7-6-6-6s-6,2.7-6,6C4.1,10.6,6.7,13.3,10.1,13.3L10.1,13.3z M10.1,2.1
		c2.8,0,5.2,2.3,5.2,5.2c0,2.8-2.3,5.2-5.2,5.2c-2.8,0-5.2-2.3-5.2-5.2C4.9,4.5,7.2,2.1,10.1,2.1L10.1,2.1z"/>
	<path class="st0" d="M9.8,8h2c0.2,0,0.4-0.2,0.4-0.4c0-0.2-0.2-0.4-0.4-0.4h-1.6V4.7c0-0.2-0.2-0.4-0.4-0.4c-0.3,0-0.4,0.2-0.4,0.4
		v2.9C9.4,7.8,9.5,8,9.8,8L9.8,8z"/>
</g>
<g>
	<path class="st3" d="M22.3,132.8h-3.2V128h-4.8v4.8h-3.2l5.6,5.6L22.3,132.8z M11.1,140v1.6h11.2V140H11.1z"/>
</g>
<g>
	<g>
		<polygon class="st3" points="21.6,168.5 17.8,164.8 21.3,161.2 20.1,160 16.6,163.5 12.8,159.8 11.6,161.1 15.3,164.8 11.6,168.6 
			12.8,169.8 16.6,166 20.4,169.8 		"/>
	</g>
</g>
<g>
	<g>
		<path class="st5" d="M18.6,45.1c3.2-3.2,3.2-8.3,0-11.5s-8.3-3.2-11.5,0c-2.7,2.7-3.1,6.7-1.2,9.8c0,0,0.1,0.2,0,0.4
			c-1,1-4.1,4.1-4.1,4.1c-0.8,0.8-1,2-0.3,2.7l0.1,0.1c0.7,0.7,1.9,0.5,2.7-0.3c0,0,3.1-3.1,4.1-4.1c0.2-0.2,0.4-0.1,0.4-0.1
			C12,48.2,15.9,47.8,18.6,45.1L18.6,45.1z M8.6,43.7c-2.3-2.3-2.3-6.1,0-8.5c2.3-2.3,6.1-2.3,8.5,0c2.3,2.3,2.3,6.1,0,8.5
			C14.8,46,11,46,8.6,43.7L8.6,43.7z"/>
	</g>
	<path class="st5" d="M12.9,36.6c-2.4,0-4.4,2.4-4.4,2.8c0,0.4,2,2.8,4.4,2.8s4.4-2.4,4.4-2.8C17.3,39.1,15.4,36.6,12.9,36.6
		L12.9,36.6z M12.9,41.5c-1.1,0-2-0.9-2-2s0.9-2,2-2s2,0.9,2,2S14,41.5,12.9,41.5L12.9,41.5z"/>
	<path class="st5" d="M13.9,39.5c0,0.6-0.5,1-1,1c-0.6,0-1-0.5-1-1c0-0.6,0.5-1,1-1C13.5,38.4,13.9,38.9,13.9,39.5L13.9,39.5z"/>
</g>
<polygon class="st0" points="19.4,22.3 9,16.3 9,20.3 2,16.3 2,28.3 9,24.3 9,28.3 "/>
<path class="st0" d="M108.5,314.9c0.8-4.6-1.8-9.1-6-10.9c-0.6-1.6-2.1-2.7-3.9-2.7s-3.3,1.1-3.9,2.7c-4.2,1.8-6.7,6.2-6,10.9
	c-1,0.8-1.6,2-1.6,3.3c0,3.3,3.6,5.3,6.3,3.7c3.1,1.9,7.1,2,10.4,0c2.8,1.6,6.3-0.4,6.3-3.7C110.1,316.9,109.5,315.7,108.5,314.9z
	 M98.5,302.8c1.5,0,2.8,1.2,2.8,2.8c0,1.5-1.2,2.8-2.8,2.8c-1.5,0-2.8-1.2-2.8-2.8C95.8,304,97,302.8,98.5,302.8z M88.5,318.2
	c0-1.6,1.3-2.8,2.8-2.8s2.8,1.2,2.8,2.8c0,1.6-1.3,2.8-2.8,2.8C89.7,321,88.5,319.7,88.5,318.2z M94.5,320.8
	c2.6-3.2-0.5-7.9-4.5-6.7c-0.4-3.5,1.4-6.7,4.3-8.4c0.1,2.2,2,4,4.2,4c2.3,0,4.1-1.8,4.2-4c3,1.7,4.7,4.9,4.3,8.4
	c-4-1.2-7.1,3.5-4.5,6.7C100.1,322.2,97,322.2,94.5,320.8z M105.9,321c-1.5,0-2.8-1.2-2.8-2.8c0-1.5,1.2-2.8,2.8-2.8
	c1.5,0,2.8,1.2,2.8,2.8C108.6,319.7,107.4,321,105.9,321z"/>
<path class="st1" d="M108.5,340.9c0.8-4.6-1.8-9.1-6-10.9c-0.6-1.6-2.1-2.7-3.9-2.7s-3.3,1.1-3.9,2.7c-4.2,1.8-6.7,6.2-6,10.9
	c-1,0.8-1.6,2-1.6,3.3c0,3.3,3.6,5.3,6.3,3.7c3.1,1.9,7.1,2,10.4,0c2.8,1.6,6.3-0.4,6.3-3.7C110.1,342.9,109.5,341.7,108.5,340.9z
	 M98.5,328.8c1.5,0,2.8,1.2,2.8,2.8c0,1.5-1.2,2.8-2.8,2.8c-1.5,0-2.8-1.2-2.8-2.8C95.8,330,97,328.8,98.5,328.8z M88.5,344.2
	c0-1.6,1.3-2.8,2.8-2.8s2.8,1.2,2.8,2.8c0,1.6-1.3,2.8-2.8,2.8C89.7,347,88.5,345.7,88.5,344.2z M94.5,346.8
	c2.6-3.2-0.5-7.9-4.5-6.7c-0.4-3.5,1.4-6.7,4.3-8.4c0.1,2.2,2,4,4.2,4c2.3,0,4.1-1.8,4.2-4c3,1.7,4.7,4.9,4.3,8.4
	c-4-1.2-7.1,3.5-4.5,6.7C100.1,348.2,97,348.2,94.5,346.8z M105.9,347c-1.5,0-2.8-1.2-2.8-2.8c0-1.5,1.2-2.8,2.8-2.8
	c1.5,0,2.8,1.2,2.8,2.8C108.6,345.7,107.4,347,105.9,347z"/>
<path class="st0" d="M106.5,358.7c0.1-0.1,0.3-0.2,0.4-0.3c0.8-0.8,1.3-1.8,1.3-2.9c0-2.3-2-4.2-4.3-4.2s-4.2,1.9-4.2,4.2
	c0,1.3,0.6,2.5,1.6,3.3c-0.9,0.3-1.6,0.8-2.3,1.5c-0.7-0.6-1.4-1.1-2.3-1.5c1-0.8,1.6-1.9,1.6-3.3c0-2.3-1.9-4.2-4.2-4.2
	s-4.2,1.9-4.2,4.2c0,1.3,0.6,2.5,1.6,3.3c-2.6,1-4.4,3.5-4.4,6.4v3.5c0,0.4,0.3,0.7,0.7,0.7c1,0,21.6,0,22.6,0
	c0.4,0,0.7-0.3,0.7-0.7v-3.5C111,362.2,109.1,359.7,106.5,358.7z M101.1,355.5c0-1.5,1.3-2.8,2.8-2.8c1.6,0,2.9,1.3,2.9,2.8
	s-1.3,2.8-2.9,2.8C102.3,358.2,101.1,357,101.1,355.5z M105.5,359.8l-1.6,1.6l-1.6-1.6c0.5-0.1,1-0.2,1.6-0.2
	C104.4,359.6,105,359.7,105.5,359.8z M94.7,366.4l-0.7,1l-0.7-1l0.6-4h0.2L94.7,366.4z M94.3,361h-0.6l-0.8-1.3
	c0.4-0.1,0.7-0.1,1.1-0.1s0.7,0,1.1,0.1L94.3,361z M94,352.7c1.6,0,2.8,1.2,2.8,2.8s-1.3,2.8-2.8,2.8s-2.8-1.2-2.8-2.8
	S92.5,352.7,94,352.7z M88.4,365.1c0-2.2,1.3-4.1,3.2-5l1,1.7l-0.7,4.6c0,0.2,0,0.3,0.1,0.5l0.7,1h-4.3
	C88.4,367.9,88.4,365.1,88.4,365.1z M95.3,367.9l0.7-1c0.1-0.1,0.1-0.3,0.1-0.5l-0.7-4.6l1-1.7c1.9,0.9,3.2,2.8,3.2,5v2.8
	C99.2,367.9,95.8,367.9,95.3,367.9z M109.6,367.9h-8.5v-2.8c0-1.4-0.4-2.8-1.2-3.9c0.3-0.3,0.7-0.6,1.1-0.8l2.5,2.4
	c0.3,0.3,0.7,0.3,1,0l2.5-2.4c1.6,1,2.7,2.7,2.7,4.7L109.6,367.9L109.6,367.9z"/>
<path class="st0" d="M106.1,363.8c-0.4,0-0.7,0.3-0.7,0.7c0,0.4,0.3,0.7,0.7,0.7h1.4c0.4,0,0.7-0.3,0.7-0.7c0-0.4-0.3-0.7-0.7-0.7
	H106.1z"/>
<path class="st1" d="M106.5,378.7c0.1-0.1,0.3-0.2,0.4-0.3c0.8-0.8,1.3-1.8,1.3-2.9c0-2.3-2-4.2-4.3-4.2s-4.2,1.9-4.2,4.2
	c0,1.3,0.6,2.5,1.6,3.3c-0.9,0.3-1.6,0.8-2.3,1.5c-0.7-0.6-1.4-1.1-2.3-1.5c1-0.8,1.6-1.9,1.6-3.3c0-2.3-1.9-4.2-4.2-4.2
	s-4.2,1.9-4.2,4.2c0,1.3,0.6,2.5,1.6,3.3c-2.6,1-4.4,3.5-4.4,6.4v3.5c0,0.4,0.3,0.7,0.7,0.7c1,0,21.6,0,22.6,0
	c0.4,0,0.7-0.3,0.7-0.7v-3.5C111,382.2,109.1,379.7,106.5,378.7z M101.1,375.5c0-1.5,1.3-2.8,2.8-2.8c1.6,0,2.9,1.3,2.9,2.8
	s-1.3,2.8-2.9,2.8C102.3,378.2,101.1,377,101.1,375.5z M105.5,379.8l-1.6,1.6l-1.6-1.6c0.5-0.1,1-0.2,1.6-0.2
	C104.4,379.6,105,379.7,105.5,379.8z M94.7,386.4l-0.7,1l-0.7-1l0.6-4h0.2L94.7,386.4z M94.3,381h-0.6l-0.8-1.3
	c0.4-0.1,0.7-0.1,1.1-0.1s0.7,0,1.1,0.1L94.3,381z M94,372.7c1.6,0,2.8,1.2,2.8,2.8s-1.3,2.8-2.8,2.8s-2.8-1.2-2.8-2.8
	S92.5,372.7,94,372.7z M88.4,385.1c0-2.2,1.3-4.1,3.2-5l1,1.7l-0.7,4.6c0,0.2,0,0.3,0.1,0.5l0.7,1h-4.3
	C88.4,387.9,88.4,385.1,88.4,385.1z M95.3,387.9l0.7-1c0.1-0.1,0.1-0.3,0.1-0.5l-0.7-4.6l1-1.7c1.9,0.9,3.2,2.8,3.2,5v2.8
	C99.2,387.9,95.8,387.9,95.3,387.9z M109.6,387.9h-8.5v-2.8c0-1.4-0.4-2.8-1.2-3.9c0.3-0.3,0.7-0.6,1.1-0.8l2.5,2.4
	c0.3,0.3,0.7,0.3,1,0l2.5-2.4c1.6,1,2.7,2.7,2.7,4.7L109.6,387.9L109.6,387.9z"/>
<path class="st1" d="M106.1,383.8c-0.4,0-0.7,0.3-0.7,0.7c0,0.4,0.3,0.7,0.7,0.7h1.4c0.4,0,0.7-0.3,0.7-0.7c0-0.4-0.3-0.7-0.7-0.7
	H106.1z"/>
<polygon class="st1" points="105.1,283.3 100.7,279 101.4,278.3 105.1,281.9 108.7,278.3 109.4,279 "/>
<polygon class="st0" points="105.1,276.3 100.7,272 101.4,271.3 105.1,274.9 108.7,271.3 109.4,272 "/>
<path class="st3" d="M20.2,374.6c-0.2,0.9-0.6,1.5-0.9,1.9c0.3-2.9-1.1-5.2-2.9-6.6c0,2.1-0.9,3.3-1.6,4.4c-0.2-0.6-0.3-1.2-0.3-2
	c-1.9,1.5-3.5,4.1-2.8,7.4c0.2,0.9,0.7,1.9,1.4,2.5c0.4,0.4,1,0.9,1.8,1.1c-0.5-0.5-0.7-1.2-0.6-2c0.3-2.1,2.3-2.4,2.6-5.2
	c1.2,1.3,2.1,3.3,1.4,5.6c-0.2,0.7-0.7,1.4-1.3,1.8c2-0.1,3.1-1.4,3.6-2c0.2-0.2,0.3-0.4,0.4-0.7C22.1,378.6,21.4,376.3,20.2,374.6z
	"/>
<path class="st0" d="M102.5,123.2l-1.4-1.4l0,0c-0.7-0.7-1.7-0.7-2.4,0c-0.6,0.6-10.2,10.2-10.8,10.8c-0.1,0.1-0.1,0.2-0.1,0.2
	l-0.7,3.9c0,0.2,0,0.3,0.1,0.4c0.1,0.1,0.3,0.2,0.4,0.1l3.9-0.7c0.1,0,0.2-0.1,0.2-0.1l10.8-10.8C103.2,125,103.2,123.9,102.5,123.2
	z M91.4,135.4l-2.5-2.5l9.2-9.2l2.5,2.5L91.4,135.4z M88.5,133.9l1.9,1.9l-2.4,0.4L88.5,133.9z M101.8,125l-0.6,0.6l-2.5-2.5
	l0.6-0.6c0.3-0.3,0.8-0.3,1.1,0l1.4,1.4C102.1,124.2,102.1,124.7,101.8,125z"/>
<path class="st1" d="M102.5,141.2l-1.4-1.4l0,0c-0.7-0.7-1.7-0.7-2.4,0c-0.6,0.6-10.2,10.2-10.8,10.8c-0.1,0.1-0.1,0.2-0.1,0.2
	l-0.7,3.9c0,0.2,0,0.3,0.1,0.4c0.1,0.1,0.3,0.2,0.4,0.1l3.9-0.7c0.1,0,0.2-0.1,0.2-0.1l10.8-10.8C103.2,143,103.2,141.9,102.5,141.2
	z M91.4,153.4l-2.5-2.5l9.2-9.2l2.5,2.5L91.4,153.4z M88.5,151.9l1.9,1.9l-2.4,0.4L88.5,151.9z M101.8,143l-0.6,0.6l-2.5-2.5
	l0.6-0.6c0.3-0.3,0.8-0.3,1.1,0l1.4,1.4C102.1,142.2,102.1,142.7,101.8,143z"/>
<path class="st0" d="M11,54.3c4.4,0,8,3.6,8,8s-3.6,8-8,8s-8-3.6-8-8S6.6,54.3,11,54.3 M11,53.3c-5,0-9,4-9,9s4,9,9,9s9-4,9-9
	S16,53.3,11,53.3L11,53.3z"/>
<path class="st0" d="M7.3,65.8v-6.9c0-0.6,0.6-0.9,1.1-0.7l6.9,3.4c0.6,0.3,0.6,1.1,0,1.4l-6.9,3.4C7.9,66.8,7.3,66.4,7.3,65.8z"/>
<path class="st0" d="M51.5,231.9c-0.6,0-1.2,0.5-1.2,1.2c0,0.4,0.2,0.8,0.5,1v1.8h1.3v-1.8c0.3-0.2,0.5-0.6,0.5-1
	C52.7,232.4,52.2,231.9,51.5,231.9z"/>
<path class="st0" d="M56.4,229.4v-1.1h-1.3v1.1h-0.8v-1.1H53v1.1h-3v-4.2c0-0.8,0.7-1.5,1.5-1.5s1.5,0.7,1.5,1.5v0.1h1.3v-0.1
	c0-1.5-1.3-2.8-2.8-2.8s-2.8,1.3-2.8,2.8v4.2h-0.8v-4.2c0-2,1.6-3.6,3.6-3.6s3.6,1.6,3.6,3.6v0.1h1.3v-0.1c0-2.7-2.2-4.9-4.9-4.9
	s-4.9,2.2-4.9,4.9v4.2H45v9.9h13v-9.9H56.4z M56.7,238H46.4v-7.3h10.3V238z"/>
<path class="st1" d="M73.5,231.9c-0.6,0-1.2,0.5-1.2,1.2c0,0.4,0.2,0.8,0.5,1v1.8h1.3v-1.8c0.3-0.2,0.5-0.6,0.5-1
	C74.6,232.4,74.1,231.9,73.5,231.9z"/>
<path class="st1" d="M78.4,229.4v-1.1h-1.3v1.1h-0.8v-1.1H75v1.1h-3v-4.2c0-0.8,0.7-1.5,1.5-1.5s1.5,0.7,1.5,1.5v0.1h1.3v-0.1
	c0-1.5-1.3-2.8-2.8-2.8s-2.8,1.3-2.8,2.8v4.2h-0.8v-4.2c0-2,1.6-3.6,3.6-3.6s3.6,1.6,3.6,3.6v0.1h1.3v-0.1c0-2.7-2.2-4.9-4.9-4.9
	c-2.7,0-4.9,2.2-4.9,4.9v4.2H67v9.9h12.9v-9.9H78.4z M78.6,238H68.3v-7.3h10.3C78.6,230.7,78.6,238,78.6,238z"/>
<rect x="50.5" y="127.3" class="st0" width="5.7" height="1"/>
<polygon class="st0" points="58.9,127.8 55,125.3 55,130.3 "/>
<g>
	<path class="st0" d="M57,130.7v3c0,0.4-0.3,0.7-0.7,0.7h-9.6c-0.4,0-0.7-0.3-0.7-0.7v-11.6c0-0.4,0.3-0.7,0.7-0.7h9.6
		c0.4,0,0.7,0.3,0.7,0.7v3l1,0.7v-3.6c0-0.9-0.8-1.7-1.7-1.7h-9.6c-0.9,0-1.7,0.8-1.7,1.7v11.6c0,0.9,0.8,1.7,1.7,1.7h9.6
		c0.9,0,1.7-0.8,1.7-1.7v-3.6L57,130.7z"/>
</g>
<rect x="72.5" y="127.3" class="st1" width="5.7" height="1"/>
<polygon class="st1" points="80.9,127.8 77,125.3 77,130.3 "/>
<g>
	<path class="st1" d="M79,130.7v3c0,0.4-0.3,0.7-0.7,0.7h-9.6c-0.4,0-0.7-0.3-0.7-0.7v-11.6c0-0.4,0.3-0.7,0.7-0.7h9.6
		c0.4,0,0.7,0.3,0.7,0.7v3l1,0.7v-3.6c0-0.9-0.8-1.7-1.7-1.7h-9.6c-0.9,0-1.7,0.8-1.7,1.7v11.6c0,0.9,0.8,1.7,1.7,1.7h9.6
		c0.9,0,1.7-0.8,1.7-1.7v-3.6L79,130.7z"/>
</g>
<path class="st0" d="M51.5,111.3c-1.4,0-2.5-1.1-2.5-2.4s1.1-2.4,2.5-2.4s2.5,1.1,2.5,2.4S52.9,111.3,51.5,111.3z M51.5,107.4
	c-0.8,0-1.4,0.6-1.4,1.4s0.6,1.4,1.4,1.4c0.8,0,1.4-0.6,1.4-1.4C52.9,108.1,52.3,107.4,51.5,107.4z"/>
<path class="st0" d="M55.2,114.3h-1c0-1.6-1.2-3-2.6-3c-1.5,0-2.6,1.3-2.6,3h-1c0-2.2,1.6-4,3.7-4C53.5,110.3,55.2,112.1,55.2,114.3
	z"/>
<path class="st0" d="M56.8,102.3H54c-0.1-1.1-1.1-2-2.3-2h-0.4c-1.2,0-2.1,0.9-2.3,2h-2.8c-0.7,0-1.2,0.5-1.2,1.2v13.6
	c0,0.7,0.5,1.2,1.2,1.2h10.6c0.7,0,1.2-0.5,1.2-1.2v-13.6C58,102.8,57.5,102.3,56.8,102.3z M50,102.6c0-0.7,0.6-1.3,1.3-1.3h0.4
	c0.7,0,1.3,0.6,1.3,1.3v0.7h-3V102.6z M57,117.1c0,0.1-0.1,0.2-0.2,0.2H46.2c-0.1,0-0.2-0.1-0.2-0.2v-13.6c0-0.1,0.1-0.2,0.2-0.2H49
	v1h5v-1h2.7c0.1,0,0.2,0.1,0.2,0.2L57,117.1L57,117.1z"/>
<path class="st1" d="M73.5,111.3c-1.4,0-2.5-1.1-2.5-2.4s1.1-2.4,2.5-2.4s2.5,1.1,2.5,2.4S74.9,111.3,73.5,111.3z M73.5,107.4
	c-0.8,0-1.4,0.6-1.4,1.4s0.6,1.4,1.4,1.4s1.4-0.6,1.4-1.4C74.9,108.1,74.3,107.4,73.5,107.4z"/>
<path class="st1" d="M77.2,114.3h-1c0-1.6-1.2-3-2.6-3c-1.5,0-2.6,1.3-2.6,3h-1c0-2.2,1.6-4,3.7-4C75.5,110.3,77.2,112.1,77.2,114.3
	z"/>
<path class="st1" d="M78.8,102.3H76c-0.1-1.1-1.1-2-2.3-2h-0.4c-1.2,0-2.1,0.9-2.3,2h-2.8c-0.7,0-1.2,0.5-1.2,1.2v13.6
	c0,0.7,0.5,1.2,1.2,1.2h10.6c0.7,0,1.2-0.5,1.2-1.2v-13.6C80,102.8,79.5,102.3,78.8,102.3z M72,102.6c0-0.7,0.6-1.3,1.3-1.3h0.4
	c0.7,0,1.3,0.6,1.3,1.3v0.7h-3C72,103.3,72,102.6,72,102.6z M79,117.1c0,0.1-0.1,0.2-0.2,0.2H68.2c-0.1,0-0.2-0.1-0.2-0.2v-13.6
	c0-0.1,0.1-0.2,0.2-0.2H71v1h5v-1h2.7c0.1,0,0.2,0.1,0.2,0.2v13.6H79z"/>
<circle class="st3" cx="3.8" cy="87.6" r="1.8"/>
<circle class="st3" cx="8.6" cy="83.1" r="1.8"/>
<circle class="st3" cx="8.6" cy="92.1" r="1.8"/>
<rect x="2.9" y="84.8" transform="matrix(0.7264 -0.6873 0.6873 0.7264 -56.9381 27.6029)" class="st3" width="6.6" height="1"/>
<rect x="5.7" y="86.6" transform="matrix(0.6867 -0.7269 0.7269 0.6867 -63.4202 32.6712)" class="st3" width="1" height="6.6"/>
<path class="st3" d="M14.6,88.1h-4.5c-0.3,0-0.5-0.2-0.5-0.5s0.2-0.5,0.5-0.5h4.5c0.3,0,0.5,0.2,0.5,0.5S14.9,88.1,14.6,88.1z"/>
<path class="st3" d="M12.3,90.4c-0.3,0-0.5-0.2-0.5-0.5v-4.6c0-0.3,0.2-0.5,0.5-0.5s0.5,0.2,0.5,0.5v4.5
	C12.8,90.1,12.6,90.4,12.3,90.4z"/>
<rect x="104.5" y="285.3" class="st0" width="1.3" height="6"/>
<rect x="102.1" y="287.7" class="st0" width="6" height="1.3"/>
<rect x="104.5" y="293.3" class="st3" width="1.3" height="6"/>
<rect x="102" y="295.6" class="st3" width="6" height="1.3"/>
<g>
	<path class="st3" d="M45,319c-1.4,0-2.5-1.1-2.5-2.5v-11c0-1.4,1.1-2.5,2.5-2.5h11c1.4,0,2.5,1.1,2.5,2.5v11c0,1.4-1.1,2.5-2.5,2.5
		H45z"/>
	<path class="st6" d="M56,303.5c1.1,0,2,0.9,2,2v11c0,1.1-0.9,2-2,2H45c-1.1,0-2-0.9-2-2v-11c0-1.1,0.9-2,2-2H56 M56,302.5H45
		c-1.7,0-3,1.3-3,3v11c0,1.7,1.3,3,3,3h11c1.7,0,3-1.3,3-3v-11C59,303.8,57.7,302.5,56,302.5L56,302.5z"/>
</g>
<path class="st1" d="M78,302.5H67c-1.7,0-3,1.3-3,3v11c0,1.7,1.3,3,3,3h11c1.7,0,3-1.3,3-3v-11C81,303.9,79.7,302.5,78,302.5z
	 M78.6,307.3l-6.6,8.8c-0.3,0.4-0.9,0.5-1.3,0.1l-3.1-3.3c-0.3-0.3-0.3-0.7,0-1l0.7-0.7c0.3-0.3,0.7-0.3,1,0l1.9,1.9h0.1l5.5-7.3
	c0.2-0.3,0.7-0.4,1-0.1l0.8,0.6C78.8,306.5,78.9,307,78.6,307.3z"/>
<g>
	<path class="st7" d="M36.6,9.6L36.6,9.6c-0.2,0-0.3,0-0.3,0.1l-0.7,0.7c-0.1,0.1-0.1,0.1-0.1,0.2v2.7c0,0.5-0.2,0.9-0.5,1.2
		S34.3,15,33.8,15h-8.9c-0.5,0-0.9-0.2-1.2-0.5c-0.3-0.3-0.5-0.7-0.5-1.2V4.5c0-0.5,0.2-0.9,0.5-1.2s0.7-0.5,1.2-0.5h8.9
		c0.2,0,0.3,0,0.5,0.1h0.1c0.1,0,0.2,0,0.2-0.1l0.5-0.5c0.1-0.1,0.1-0.2,0.1-0.3c0-0.1-0.1-0.2-0.2-0.2c-0.4-0.2-0.8-0.3-1.2-0.3
		h-8.9c-0.8,0-1.6,0.3-2.2,0.9s-0.9,1.3-0.9,2.2v8.7c0,0.8,0.3,1.6,0.9,2.2c0.6,0.6,1.3,0.9,2.2,0.9h8.9c0.8,0,1.6-0.3,2.2-0.9
		c0.6-0.6,0.9-1.3,0.9-2.2V9.9C36.8,9.8,36.7,9.7,36.6,9.6L36.6,9.6z"/>
	<path class="st7" d="M39.3,3.5l-1.2-1.2C37.9,2.1,37.7,2,37.5,2s-0.4,0.1-0.6,0.3L30,9.2l-2.8-2.8c-0.2-0.1-0.4-0.2-0.7-0.2
		c-0.2,0-0.4,0.1-0.6,0.3l-1.2,1.2c-0.2,0.2-0.3,0.4-0.3,0.6s0.1,0.4,0.3,0.6l4.6,4.6c0.2,0.2,0.4,0.3,0.6,0.3s0.4-0.1,0.6-0.3
		l8.7-8.7c0.2-0.2,0.3-0.4,0.3-0.6C39.5,3.9,39.4,3.7,39.3,3.5L39.3,3.5z"/>
</g>
<g>
	<path class="st1" d="M57,324.5c-0.8-0.8-1.2-1.2-2-2h-7.6v4.6h-0.9c-0.7-0.7-0.3-0.3-1-1H43c-0.5,0-1,0.5-1,1v10c0,0.5,0.5,1,1,1
		h13c0.5,0,1-0.5,1-1v-5.6l0,0V324.5z M48.4,323.5h6.2l0.2,0.2l1.2,1.2v3.4l0,0v2.2h-7.6C48.4,330.5,48.4,323.5,48.4,323.5z
		 M45.1,327.1l0.1,0.1l0.9,0.9h1.3v2.4H43v-3.4H45.1z M43,337.1v-5.6h4.4H56v5.6H43z"/>
	<rect x="49.2" y="324.5" class="st1" width="6" height="1"/>
	<rect x="49.2" y="326.5" class="st1" width="6" height="1"/>
	<rect x="49.2" y="328.5" class="st1" width="6" height="1"/>
</g>
<g>
	<path class="st1" d="M79,324.5c-0.8-0.8-1.2-1.2-2-2h-7.6v4.6h-0.9c-0.7-0.7-0.3-0.3-1-1H65c-0.5,0-1,0.5-1,1v10c0,0.5,0.5,1,1,1
		h13c0.5,0,1-0.5,1-1v-5.6l0,0V324.5z M70.4,323.5h6.2l0.2,0.2l1.2,1.2v3.4l0,0v2.2h-7.6C70.4,330.5,70.4,323.5,70.4,323.5z
		 M67.1,327.1l0.1,0.1l0.9,0.9h1.3v2.4H65v-3.4H67.1z M65,337.1v-5.6h4.4H78v5.6H65z"/>
	<rect x="71.2" y="324.5" class="st1" width="6" height="1"/>
	<rect x="71.2" y="326.5" class="st1" width="6" height="1"/>
	<rect x="71.2" y="328.5" class="st1" width="6" height="1"/>
</g>
<g>
	<path class="st0" d="M57,324.5c-0.8-0.8-1.2-1.2-2-2h-7.6v4.6h-0.9c-0.7-0.7-0.3-0.3-1-1H43c-0.5,0-1,0.5-1,1v10c0,0.5,0.5,1,1,1
		h13c0.5,0,1-0.5,1-1v-5.6l0,0V324.5z M48.4,323.5h6.2l0.2,0.2l1.2,1.2v3.4l0,0v2.2h-7.6C48.4,330.5,48.4,323.5,48.4,323.5z
		 M45.1,327.1l0.1,0.1l0.9,0.9h1.3v2.4H43v-3.4H45.1z M43,337.1v-5.6h4.4H56v5.6H43z"/>
	<rect x="49.2" y="324.5" class="st0" width="6" height="1"/>
	<rect x="49.2" y="326.5" class="st0" width="6" height="1"/>
	<rect x="49.2" y="328.5" class="st0" width="6" height="1"/>
</g>
<path class="st0" d="M48.5,342.3H43c-0.3,0-0.5,0.2-0.5,0.5v11c0,0.3,0.2,0.5,0.5,0.5h7c0.3,0,0.5-0.2,0.5-0.5v-9.5
	C49.7,343.5,49.3,343.1,48.5,342.3z M49.5,352.3h-6v-1h6V352.3z M49.5,350.3h-6v-1h6V350.3z M49.5,348.3h-6v-1h6V348.3z M49.5,346.3
	h-6v-1h6V346.3z"/>
<g>
	<g>
		<path class="st0" d="M66,345.3h-2v-2.5c0-0.3-0.2-0.5-0.5-0.5h-6c-0.3,0-0.5,0.2-0.5,0.5v2.5h-2c-0.3,0-0.5,0.2-0.5,0.5v2.5H59v-1
			h3v1h4.5v-2.5C66.5,345.5,66.3,345.3,66,345.3z M58,343.3h5v2h-5V343.3z"/>
		<path class="st0" d="M62,350.3h-3v-1h-4.5v4.5c0,0.3,0.2,0.5,0.5,0.5h11c0.3,0,0.5-0.2,0.5-0.5v-4.5H62V350.3z"/>
	</g>
	<rect x="60" y="348.3" class="st0" width="1" height="1"/>
</g>
<path class="st1" d="M63.9,183.6c-2.1,0-3.8-2.1-3.8-4.7s1.7-4.7,3.8-4.7s3.8,2.1,3.8,4.7C67.8,181.5,66,183.6,63.9,183.6z
	 M63.9,176.1c-1.1,0-2,1.3-2,2.9c0,1.6,0.9,2.9,2,2.9s2-1.3,2-2.9C65.9,177.4,65,176.1,63.9,176.1z"/>
<g>
	<path class="st1" d="M71.7,185.5l-2.3-2.3c-0.4-0.4-0.9-0.4-1.3,0s-0.4,0.9,0,1.3l0.8,0.8h-5.3c-0.5,0-0.9,0.4-0.9,0.9
		s0.4,0.9,0.9,0.9h5.3l-0.8,0.8c-0.4,0.4-0.4,0.9,0,1.3c0.2,0.2,0.4,0.3,0.6,0.3s0.5-0.1,0.6-0.3l2.3-2.3c0.2-0.2,0.3-0.4,0.3-0.6
		S71.9,185.6,71.7,185.5z"/>
	<path class="st1" d="M66.9,188.4c0-0.1,0-0.3,0-0.4h-3.3c-0.5,0-0.9-0.2-1.3-0.5h-3.5c0,0,0-0.1,0-0.2c0.6-2.1,2.7-3.5,5.1-3.5
		c0.7,0,1.4,0.1,2,0.4h1c0-0.1,0-0.3,0-0.4c0-0.4,0.1-0.7,0.3-1c-1-0.5-2.1-0.7-3.3-0.7c-3.2,0-6.1,2-6.8,4.8
		c-0.2,0.6,0,1.3,0.3,1.8c0.3,0.4,0.7,0.6,1.2,0.6h8.5C67,189,66.9,188.7,66.9,188.4z"/>
</g>
<path class="st0" d="M53.8,367.3c-0.3,0-0.6-0.1-0.8-0.3l-9.7-9.7c-0.5-0.5-0.5-1.2,0-1.6s1.2-0.5,1.6,0l9.7,9.7
	c0.5,0.5,0.5,1.2,0,1.6C54.4,367.2,54.1,367.3,53.8,367.3z"/>
<path class="st0" d="M44.2,367.3c-0.3,0-0.6-0.1-0.8-0.3c-0.5-0.5-0.5-1.2,0-1.6l9.7-9.7c0.5-0.5,1.2-0.5,1.6,0s0.5,1.2,0,1.6
	L45,367C44.8,367.2,44.5,367.3,44.2,367.3z"/>
<path class="st3" d="M67.8,357.3l-6.9,9.7c-0.3,0.4-0.9,0.5-1.4,0.1l-3.3-3.6c-0.3-0.3-0.3-0.8,0-1.1l0.7-0.8c0.3-0.3,0.7-0.3,1.1,0
	l2,2.1h0.1l5.8-8c0.2-0.3,0.7-0.4,1.1-0.1l0.8,0.7C68,356.4,68.1,356.9,67.8,357.3z"/>
<path class="st0" d="M45.3,382.6c-2.1,0-3.8-2.1-3.8-4.7s1.7-4.7,3.8-4.7s3.8,2.1,3.8,4.7C49.2,380.5,47.4,382.6,45.3,382.6z
	 M45.3,375.1c-1.1,0-2,1.3-2,2.9s0.9,2.9,2,2.9s2-1.3,2-2.9S46.4,375.1,45.3,375.1z"/>
<g>
	<path class="st0" d="M53.1,384.5l-2.3-2.3c-0.4-0.4-0.9-0.4-1.3,0c-0.4,0.4-0.4,0.9,0,1.3l0.8,0.8H45c-0.5,0-0.9,0.4-0.9,0.9
		s0.4,0.9,0.9,0.9h5.3l-0.8,0.8c-0.4,0.4-0.4,0.9,0,1.3c0.2,0.2,0.4,0.3,0.6,0.3s0.5-0.1,0.6-0.3l2.3-2.3c0.2-0.2,0.3-0.4,0.3-0.6
		S53.3,384.6,53.1,384.5z"/>
	<path class="st0" d="M48.3,387.4c0-0.1,0-0.3,0-0.4H45c-0.5,0-0.9-0.2-1.3-0.5h-3.5c0,0,0-0.1,0-0.2c0.6-2.1,2.7-3.5,5.1-3.5
		c0.7,0,1.4,0.1,2,0.4h1c0-0.1,0-0.3,0-0.4c0-0.4,0.1-0.7,0.3-1c-1-0.5-2.1-0.7-3.3-0.7c-3.2,0-6.1,2-6.8,4.8
		c-0.2,0.6,0,1.3,0.3,1.8c0.3,0.4,0.7,0.6,1.2,0.6h8.5C48.4,388,48.3,387.7,48.3,387.4z"/>
</g>
<path class="st1" d="M69.4,382.6c-2.1,0-3.8-2.1-3.8-4.7s1.7-4.7,3.8-4.7c2.1,0,3.8,2.1,3.8,4.7C73.3,380.5,71.5,382.6,69.4,382.6z
	 M69.4,375.1c-1.1,0-2,1.3-2,2.9s0.9,2.9,2,2.9s2-1.3,2-2.9S70.5,375.1,69.4,375.1z"/>
<g>
	<path class="st1" d="M77.2,384.5l-2.3-2.3c-0.4-0.4-0.9-0.4-1.3,0s-0.4,0.9,0,1.3l0.8,0.8h-5.3c-0.5,0-0.9,0.4-0.9,0.9
		s0.4,0.9,0.9,0.9h5.3l-0.8,0.8c-0.4,0.4-0.4,0.9,0,1.3c0.2,0.2,0.4,0.3,0.6,0.3s0.5-0.1,0.6-0.3l2.3-2.3c0.2-0.2,0.3-0.4,0.3-0.6
		S77.4,384.6,77.2,384.5z"/>
	<path class="st1" d="M72.4,387.4c0-0.1,0-0.3,0-0.4h-3.3c-0.5,0-0.9-0.2-1.3-0.5h-3.5c0,0,0-0.1,0-0.2c0.6-2.1,2.7-3.5,5.1-3.5
		c0.7,0,1.4,0.1,2,0.4h1c0-0.1,0-0.3,0-0.4c0-0.4,0.1-0.7,0.3-1c-1-0.5-2.1-0.7-3.3-0.7c-3.2,0-6.1,2-6.8,4.8
		c-0.2,0.6,0,1.3,0.3,1.8c0.3,0.4,0.7,0.6,1.2,0.6h8.5C72.5,388,72.4,387.7,72.4,387.4z"/>
</g>
<path class="st0" d="M45.3,404.6c-2.1,0-3.8-2.1-3.8-4.7s1.7-4.7,3.8-4.7s3.8,2.1,3.8,4.7C49.2,402.5,47.4,404.6,45.3,404.6z
	 M45.3,397.1c-1.1,0-2,1.3-2,2.9s0.9,2.9,2,2.9s2-1.3,2-2.9S46.4,397.1,45.3,397.1z"/>
<g>
	<path class="st0" d="M53.1,406.5l-2.3-2.3c-0.4-0.4-0.9-0.4-1.3,0c-0.4,0.4-0.4,0.9,0,1.3l0.8,0.8H45c-0.5,0-0.9,0.4-0.9,0.9
		s0.4,0.9,0.9,0.9h5.3l-0.8,0.8c-0.4,0.4-0.4,0.9,0,1.3c0.2,0.2,0.4,0.3,0.6,0.3s0.5-0.1,0.6-0.3l2.3-2.3c0.2-0.2,0.3-0.4,0.3-0.6
		S53.3,406.6,53.1,406.5z"/>
	<path class="st0" d="M48.3,409.4c0-0.1,0-0.3,0-0.4H45c-0.5,0-0.9-0.2-1.3-0.5h-3.5c0,0,0-0.1,0-0.2c0.6-2.1,2.7-3.5,5.1-3.5
		c0.7,0,1.4,0.1,2,0.4h1c0-0.1,0-0.3,0-0.4c0-0.4,0.1-0.7,0.3-1c-1-0.5-2.1-0.7-3.3-0.7c-3.2,0-6.1,2-6.8,4.8
		c-0.2,0.6,0,1.3,0.3,1.8c0.3,0.4,0.7,0.6,1.2,0.6h8.5C48.4,410,48.3,409.7,48.3,409.4z"/>
</g>
<path class="st1" d="M69.4,404.6c-2.1,0-3.8-2.1-3.8-4.7s1.7-4.7,3.8-4.7c2.1,0,3.8,2.1,3.8,4.7C73.3,402.5,71.5,404.6,69.4,404.6z
	 M69.4,397.1c-1.1,0-2,1.3-2,2.9s0.9,2.9,2,2.9s2-1.3,2-2.9S70.5,397.1,69.4,397.1z"/>
<g>
	<path class="st1" d="M77.2,406.5l-2.3-2.3c-0.4-0.4-0.9-0.4-1.3,0s-0.4,0.9,0,1.3l0.8,0.8h-5.3c-0.5,0-0.9,0.4-0.9,0.9
		s0.4,0.9,0.9,0.9h5.3l-0.8,0.8c-0.4,0.4-0.4,0.9,0,1.3c0.2,0.2,0.4,0.3,0.6,0.3s0.5-0.1,0.6-0.3l2.3-2.3c0.2-0.2,0.3-0.4,0.3-0.6
		S77.4,406.6,77.2,406.5z"/>
	<path class="st1" d="M72.4,409.4c0-0.1,0-0.3,0-0.4h-3.3c-0.5,0-0.9-0.2-1.3-0.5h-3.5c0,0,0-0.1,0-0.2c0.6-2.1,2.7-3.5,5.1-3.5
		c0.7,0,1.4,0.1,2,0.4h1c0-0.1,0-0.3,0-0.4c0-0.4,0.1-0.7,0.3-1c-1-0.5-2.1-0.7-3.3-0.7c-3.2,0-6.1,2-6.8,4.8
		c-0.2,0.6,0,1.3,0.3,1.8c0.3,0.4,0.7,0.6,1.2,0.6h8.5C72.5,410,72.4,409.7,72.4,409.4z"/>
</g>
<linearGradient id="SVGID_1_" gradientUnits="userSpaceOnUse" x1="58.9943" y1="-450.3443" x2="66.0654" y2="-457.4154" gradientTransform="matrix(1 0 0 1 0 839.55)">
	<stop  offset="0" style="stop-color:#00FFCD"/>
	<stop  offset="1" style="stop-color:#16A085"/>
</linearGradient>
<circle class="st8" cx="51.4" cy="396.8" r="3.1"/>
<linearGradient id="SVGID_2_" gradientUnits="userSpaceOnUse" x1="82.0443" y1="-449.2944" x2="89.1153" y2="-456.3655" gradientTransform="matrix(1 0 0 1 0 839.55)">
	<stop  offset="0" style="stop-color:#00FFCD"/>
	<stop  offset="1" style="stop-color:#16A085"/>
</linearGradient>
<circle class="st9" cx="75.5" cy="396.8" r="3.1"/>
<g>
	<path class="st1" d="M24,459.8c12.8,0,23.5-10.7,23.5-23.5S36.8,412.8,24,412.8S0.5,423.5,0.5,436.3C0.5,449.5,11.2,459.8,24,459.8
		L24,459.8z M24,416.2c11.3,0,20.4,9.1,20.4,20.4S35.3,457,24,457s-20.4-9.1-20.4-20.4S12.7,416.2,24,416.2L24,416.2z"/>
</g>
<rect x="22.4" y="422.5" class="st1" width="3.1" height="15.8"/>
<rect x="22.4" y="444.4" class="st1" width="3.1" height="3.3"/>
<g>
	<path class="st1" d="M9.5,460.7c-5,0-9,4-9,9s4,9,9,9s9-4,9-9S14.5,460.7,9.5,460.7z M9.5,477c-4,0-7.3-3.3-7.3-7.3
		s3.3-7.3,7.3-7.3s7.3,3.3,7.3,7.3S13.5,477,9.5,477z"/>
	<path class="st1" d="M11,469.5l-2.2-1.1c-0.1,0-0.1-0.1-0.1-0.1c0-0.1,0-0.1,0-0.2s0.1-0.1,0.2-0.1h1.3c0.1,0,0.3,0.1,0.3,0.3v0.6
		h1.6v-0.6c0-1-0.8-1.8-1.7-1.8v-0.9H8.7v0.9c-0.4,0-0.8,0.2-1.2,0.5c-0.3,0.3-0.5,0.8-0.5,1.3c0,0.7,0.4,1.3,1,1.7l2.2,1.1
		c0.1,0,0.1,0.1,0.1,0.1c0,0.1,0,0.1,0,0.2s-0.1,0.1-0.2,0.1H8.9c-0.1,0-0.3-0.1-0.3-0.3v-0.6H7v0.6c0,1,0.8,1.8,1.7,1.8v0.9h1.6
		V473c0.4,0,0.8-0.2,1.2-0.5c0.3-0.3,0.5-0.8,0.5-1.3C12,470.5,11.6,469.9,11,469.5z"/>
</g>
<g>
	<path class="st0" d="M28.5,460.7c-5,0-9,4-9,9s4,9,9,9s9-4,9-9S33.5,460.7,28.5,460.7z M28.5,477c-4,0-7.3-3.3-7.3-7.3
		s3.3-7.3,7.3-7.3s7.3,3.3,7.3,7.3S32.5,477,28.5,477z"/>
	<path class="st0" d="M30,469.5l-2.2-1.1c-0.1,0-0.1-0.1-0.1-0.1c0-0.1,0-0.1,0-0.2s0.1-0.1,0.2-0.1h1.3c0.1,0,0.3,0.1,0.3,0.3v0.6
		h1.6v-0.6c0-1-0.8-1.8-1.7-1.8v-0.9h-1.6v0.9c-0.4,0-0.8,0.2-1.2,0.5c-0.3,0.3-0.5,0.8-0.5,1.3c0,0.7,0.4,1.3,1,1.7l2.2,1.1
		c0.1,0,0.1,0.1,0.1,0.1c0,0.1,0,0.1,0,0.2s-0.1,0.1-0.2,0.1h-1.3c-0.1,0-0.3-0.1-0.3-0.3v-0.6H26v0.6c0,1,0.8,1.8,1.7,1.8v0.9h1.6
		V473c0.4,0,0.8-0.2,1.2-0.5c0.3-0.3,0.5-0.8,0.5-1.3C31,470.5,30.6,469.9,30,469.5z"/>
</g>
<g>
	<path class="st1" d="M7.5,479.7c-3.9,0-7,3.1-7,7s3.1,7,7,7s7-3.1,7-7S11.4,479.7,7.5,479.7z M7.5,492.3c-3.1,0-5.6-2.5-5.6-5.6
		s2.5-5.6,5.6-5.6s5.6,2.5,5.6,5.6S10.6,492.3,7.5,492.3z"/>
	<path class="st1" d="M8.6,486.6l-1.7-0.9l-0.1-0.1v-0.1c0-0.1,0.1-0.1,0.2-0.1h1c0.1,0,0.2,0.1,0.2,0.2v0.5h1.2v-0.5
		c0-0.8-0.6-1.4-1.3-1.4v-0.7H6.9v0.7c-0.3,0-0.7,0.2-0.9,0.4c-0.3,0.3-0.4,0.6-0.4,1c0,0.5,0.3,1,0.8,1.3l1.7,0.8l0.1,0.1v0.1
		c0,0.1-0.1,0.1-0.2,0.1H7c-0.1,0-0.2-0.1-0.2-0.2v-0.5H5.6v0.5c0,0.8,0.6,1.4,1.3,1.4v0.7h1.2v-0.7c0.3,0,0.7-0.2,0.9-0.4
		c0.3-0.3,0.4-0.6,0.4-1C9.4,487.3,9.1,486.8,8.6,486.6z"/>
</g>
<g>
	<path class="st0" d="M22.5,479.7c-3.9,0-7,3.1-7,7s3.1,7,7,7s7-3.1,7-7S26.4,479.7,22.5,479.7z M22.5,492.3c-3.1,0-5.6-2.5-5.6-5.6
		s2.5-5.6,5.6-5.6s5.6,2.5,5.6,5.6S25.6,492.3,22.5,492.3z"/>
	<path class="st0" d="M23.6,486.6l-1.7-0.9l-0.1-0.1v-0.1c0-0.1,0.1-0.1,0.2-0.1h1c0.1,0,0.2,0.1,0.2,0.2v0.5h1.2v-0.5
		c0-0.8-0.6-1.4-1.3-1.4v-0.7h-1.2v0.7c-0.3,0-0.7,0.2-0.9,0.4c-0.3,0.3-0.4,0.6-0.4,1c0,0.5,0.3,1,0.8,1.3l1.7,0.9l0.1,0.1v0.1
		c0,0.1-0.1,0.1-0.2,0.1h-1c-0.1,0-0.2-0.1-0.2-0.2v-0.5h-1.2v0.5c0,0.8,0.6,1.4,1.3,1.4v0.7h1.2v-0.7c0.3,0,0.7-0.2,0.9-0.4
		c0.3-0.3,0.4-0.6,0.4-1C24.4,487.3,24.1,486.8,23.6,486.6z"/>
</g>
<g>
	
		<rect x="85" y="399.4" transform="matrix(0.7071 -0.7071 0.7071 0.7071 -255.6662 182.8103)" class="st3" width="15.7" height="1.2"/>
	
		<rect x="92.3" y="392.1" transform="matrix(0.7071 -0.7071 0.7071 0.7071 -255.599 182.8482)" class="st3" width="1.2" height="15.7"/>
</g>
<path class="st1" d="M64,413.5H53c-1.7,0-3,1.3-3,3v11c0,1.7,1.3,3,3,3h11c1.7,0,3-1.3,3-3v-11C67,414.9,65.7,413.5,64,413.5z
	 M62.4,423.6h-7.8c-0.9,0-1.6-0.7-1.6-1.6s0.7-1.6,1.6-1.6h7.8c0.9,0,1.6,0.7,1.6,1.6S63.3,423.6,62.4,423.6z"/>
<path class="st0" d="M94.8,428.8l-4.1-4.1c1.1-1.2,1.6-2.7,1.6-4.2c0-3.5-3-6.4-6.7-6.4s-6.7,2.9-6.7,6.4s3,6.4,6.7,6.4
	c1.4,0,2.8-0.4,3.9-1.2l4.1,4.1c0.1,0.1,0.3,0.2,0.5,0.2s0.4-0.1,0.5-0.2C95.1,429.5,95.1,429.1,94.8,428.8z M90.8,420.4
	c0,2.7-2.3,5-5.2,5c-2.8,0-5.2-2.2-5.2-5s2.3-5,5.2-5C88.5,415.5,90.8,417.7,90.8,420.4z"/>
<path class="st1" d="M111.8,428.8l-4.1-4.1c1.1-1.2,1.6-2.7,1.6-4.2c0-3.5-3-6.4-6.7-6.4s-6.7,2.9-6.7,6.4s3,6.4,6.7,6.4
	c1.4,0,2.8-0.4,3.9-1.2l4.1,4.1c0.1,0.1,0.3,0.2,0.5,0.2s0.4-0.1,0.5-0.2C112.1,429.5,112.1,429.1,111.8,428.8z M107.8,420.4
	c0,2.7-2.3,5-5.2,5c-2.8,0-5.2-2.2-5.2-5s2.3-5,5.2-5C105.5,415.5,107.8,417.7,107.8,420.4z"/>
</svg>
