<?xml version="1.0" encoding="utf-8"?>
<!-- Generator: Adobe Illustrator 21.0.0, SVG Export Plug-In . SVG Version: 6.00 Build 0)  -->
<svg version="1.1" id="Слой_1" xmlns="http://www.w3.org/2000/svg" xmlns:xlink="http://www.w3.org/1999/xlink" x="0px" y="0px"
	 viewBox="0 0 398 69.8" style="enable-background:new 0 0 398 69.8;" xml:space="preserve">
<style type="text/css">
	.st0{fill:url(#SVGID_1_);}
	.st1{fill:url(#SVGID_2_);}
	.st2{fill:url(#SVGID_3_);}
	.st3{fill:url(#SVGID_4_);}
	.st4{fill:url(#SVGID_5_);}
	.st5{fill:url(#SVGID_6_);}
	.st6{fill:url(#SVGID_7_);}
</style>
<g>
	<g>
		<linearGradient id="SVGID_1_" gradientUnits="userSpaceOnUse" x1="-3.5538" y1="32.2902" x2="334.8788" y2="78.4399">
			<stop  offset="0" style="stop-color:#566063"/>
			<stop  offset="0.1145" style="stop-color:#727B7F"/>
			<stop  offset="0.199" style="stop-color:#8A9197"/>
			<stop  offset="0.3447" style="stop-color:#455053"/>
			<stop  offset="0.4159" style="stop-color:#626B6F"/>
			<stop  offset="0.5038" style="stop-color:#7F878C"/>
			<stop  offset="0.5538" style="stop-color:#8A9197"/>
			<stop  offset="0.7103" style="stop-color:#455053"/>
			<stop  offset="0.7669" style="stop-color:#626B6F"/>
			<stop  offset="0.8367" style="stop-color:#7F878C"/>
			<stop  offset="0.8764" style="stop-color:#8A9197"/>
			<stop  offset="1" style="stop-color:#D0D2D3"/>
			<stop  offset="1" style="stop-color:#A6A8AB"/>
		</linearGradient>
		<path class="st0" d="M0,5.1h7.3l23.2,34.7L53.6,5.1h7.3v63.6h-7.2V17.2l-23.2,34h-0.4L7,17.3v51.4H0V5.1z"/>
		<linearGradient id="SVGID_2_" gradientUnits="userSpaceOnUse" x1="-1.037" y1="13.8126" x2="337.4057" y2="59.9637">
			<stop  offset="0" style="stop-color:#566063"/>
			<stop  offset="0.1145" style="stop-color:#727B7F"/>
			<stop  offset="0.199" style="stop-color:#8A9197"/>
			<stop  offset="0.3447" style="stop-color:#455053"/>
			<stop  offset="0.4159" style="stop-color:#626B6F"/>
			<stop  offset="0.5038" style="stop-color:#7F878C"/>
			<stop  offset="0.5538" style="stop-color:#8A9197"/>
			<stop  offset="0.7103" style="stop-color:#455053"/>
			<stop  offset="0.7669" style="stop-color:#626B6F"/>
			<stop  offset="0.8367" style="stop-color:#7F878C"/>
			<stop  offset="0.8764" style="stop-color:#8A9197"/>
			<stop  offset="1" style="stop-color:#D0D2D3"/>
			<stop  offset="1" style="stop-color:#A6A8AB"/>
		</linearGradient>
		<path class="st1" d="M156,5.1H178c20,0,33.8,13.7,33.8,31.6v0.2c0,17.9-13.8,31.8-33.8,31.8H156V5.1z M178,62.1
			c16.1,0,26.3-10.9,26.3-25v-0.2c0-14.1-10.3-25.1-26.3-25.1h-14.9v50.3H178z"/>
		<linearGradient id="SVGID_3_" gradientUnits="userSpaceOnUse" x1="0.6471" y1="1.4514" x2="339.0902" y2="47.6026">
			<stop  offset="0" style="stop-color:#566063"/>
			<stop  offset="0.1145" style="stop-color:#727B7F"/>
			<stop  offset="0.199" style="stop-color:#8A9197"/>
			<stop  offset="0.3447" style="stop-color:#455053"/>
			<stop  offset="0.4159" style="stop-color:#626B6F"/>
			<stop  offset="0.5038" style="stop-color:#7F878C"/>
			<stop  offset="0.5538" style="stop-color:#8A9197"/>
			<stop  offset="0.7103" style="stop-color:#455053"/>
			<stop  offset="0.7669" style="stop-color:#626B6F"/>
			<stop  offset="0.8367" style="stop-color:#7F878C"/>
			<stop  offset="0.8764" style="stop-color:#8A9197"/>
			<stop  offset="1" style="stop-color:#D0D2D3"/>
			<stop  offset="1" style="stop-color:#A6A8AB"/>
		</linearGradient>
		<path class="st2" d="M226,42.1v-37h7.2v36.5c0,13.7,7.3,21.4,19.4,21.4c11.7,0,19.2-7.1,19.2-21v-37h7.2v36.4
			c0,18.5-10.6,28.1-26.5,28.1C236.7,69.7,226,60.1,226,42.1z"/>
		<linearGradient id="SVGID_4_" gradientUnits="userSpaceOnUse" x1="1.6693" y1="-6.0007" x2="340.1052" y2="40.1495">
			<stop  offset="0" style="stop-color:#566063"/>
			<stop  offset="0.1145" style="stop-color:#727B7F"/>
			<stop  offset="0.199" style="stop-color:#8A9197"/>
			<stop  offset="0.3447" style="stop-color:#455053"/>
			<stop  offset="0.4159" style="stop-color:#626B6F"/>
			<stop  offset="0.5038" style="stop-color:#7F878C"/>
			<stop  offset="0.5538" style="stop-color:#8A9197"/>
			<stop  offset="0.7103" style="stop-color:#455053"/>
			<stop  offset="0.7669" style="stop-color:#626B6F"/>
			<stop  offset="0.8367" style="stop-color:#7F878C"/>
			<stop  offset="0.8764" style="stop-color:#8A9197"/>
			<stop  offset="1" style="stop-color:#D0D2D3"/>
			<stop  offset="1" style="stop-color:#A6A8AB"/>
		</linearGradient>
		<path class="st3" d="M291.7,59.4l4.4-5.3c6.6,6,13,9,21.8,9c8.5,0,14.2-4.5,14.2-10.8v-0.2c0-5.9-3.2-9.3-16.5-12.1
			c-14.6-3.2-21.3-7.9-21.3-18.3v-0.2c0-10,8.8-17.3,20.9-17.3c9.3,0,15.9,2.6,22.3,7.8l-4.2,5.5c-5.9-4.8-11.8-6.9-18.3-6.9
			c-8.3,0-13.5,4.5-13.5,10.3v0.2c0,6,3.3,9.4,17.3,12.3c14.2,3.1,20.7,8.3,20.7,18v0.2c0,10.9-9.1,18-21.7,18
			C307.6,69.6,299.3,66.2,291.7,59.4z"/>
		<g>
			<radialGradient id="SVGID_5_" cx="88.1514" cy="47.606" r="20.3066" gradientUnits="userSpaceOnUse">
				<stop  offset="0" style="stop-color:#FFFACB"/>
				<stop  offset="0.1161" style="stop-color:#FAF1BA"/>
				<stop  offset="0.3456" style="stop-color:#EED98D"/>
				<stop  offset="0.3708" style="stop-color:#EDD688"/>
				<stop  offset="0.6854" style="stop-color:#EABA10"/>
				<stop  offset="1" style="stop-color:#C2912E"/>
			</radialGradient>
			<path class="st4" d="M81.6,38.8h5.6l-8.7-13.4l-8.7,13.4h5.6c0,17.1,13.8,30.9,30.9,30.9v-6.1C92.7,63.7,81.6,52.6,81.6,38.8z"/>
			<g>
				<linearGradient id="SVGID_6_" gradientUnits="userSpaceOnUse" x1="106.0677" y1="-0.3563" x2="125.716" y2="71.5909">
					<stop  offset="0" style="stop-color:#566063"/>
					<stop  offset="0.1145" style="stop-color:#727B7F"/>
					<stop  offset="0.199" style="stop-color:#8A9197"/>
					<stop  offset="0.3447" style="stop-color:#455053"/>
					<stop  offset="0.4159" style="stop-color:#626B6F"/>
					<stop  offset="0.5038" style="stop-color:#7F878C"/>
					<stop  offset="0.5538" style="stop-color:#8A9197"/>
					<stop  offset="0.7103" style="stop-color:#455053"/>
					<stop  offset="0.7669" style="stop-color:#626B6F"/>
					<stop  offset="0.8367" style="stop-color:#7F878C"/>
					<stop  offset="0.8764" style="stop-color:#8A9197"/>
					<stop  offset="1" style="stop-color:#D0D2D3"/>
					<stop  offset="1" style="stop-color:#A6A8AB"/>
				</linearGradient>
				<path class="st5" d="M145.3,41.7V36l-8.4-2.4c-0.3-1.8-0.8-3.6-1.4-5.3l6-6.3l-2.9-5l-8.5,2.1c-0.6-0.7-1.2-1.4-1.9-2
					c-0.6-0.6-1.3-1.3-2-1.8l2.1-8.5l-5-2.9l-6.3,6c-1.7-0.6-3.5-1.1-5.3-1.4L109.3,0h-5.7l-2.4,8.4C94.7,9.5,89,12.6,84.6,17
					c-0.8,0.8-1.6,1.8-2.4,2.7l3.5,5.5c0.9-1.4,2-2.7,3.2-3.9c4.5-4.5,10.7-7.3,17.6-7.3c6.9,0,13.1,2.8,17.6,7.3
					c4.5,4.5,7.3,10.7,7.3,17.6c0,6.9-2.8,13.1-7.3,17.6c-3.1,3.1-7,5.4-11.4,6.5v6.2c6.1-1.2,11.5-4.2,15.7-8.4
					c0.6-0.6,1.3-1.3,1.9-2l8.5,2.1l2.9-5l-6-6.3c0.6-1.7,1.1-3.5,1.4-5.3L145.3,41.7z"/>
			</g>
		</g>
	</g>
	<radialGradient id="SVGID_7_" cx="345.8002" cy="-12.8476" r="59.3949" gradientUnits="userSpaceOnUse">
		<stop  offset="0" style="stop-color:#FFFACB"/>
		<stop  offset="0.1161" style="stop-color:#FAF1BA"/>
		<stop  offset="0.3456" style="stop-color:#EED98D"/>
		<stop  offset="0.3708" style="stop-color:#EDD688"/>
		<stop  offset="0.6854" style="stop-color:#EABA10"/>
		<stop  offset="1" style="stop-color:#C2912E"/>
	</radialGradient>
	<path class="st6" d="M350.8,51.9v-0.2c0-7.4,5.4-12.7,12.9-15.4c-5.8-2.7-10.8-7.2-10.8-14.4v-0.2c0-9.7,10-16.6,21.4-16.6
		c11.5,0,21.4,6.9,21.4,16.6v0.2c0,7.3-4.9,11.7-10.8,14.4c7.4,2.8,12.9,7.9,12.9,15.3v0.2c0,10.7-10.2,17.8-23.6,17.8
		C361.1,69.7,350.8,62.4,350.8,51.9z M390.8,51.8v-0.2c0-7-7.3-11.9-16.4-11.9c-9.1,0-16.4,4.9-16.4,11.9v0.2
		c0,6.4,6.1,11.7,16.4,11.7C384.7,63.5,390.8,58.1,390.8,51.8z M388.8,22.4v-0.2c0-6.2-6.2-10.8-14.3-10.8
		c-8.2,0-14.3,4.6-14.3,10.8v0.2c0,6.8,6.4,11.5,14.3,11.5C382.4,33.8,388.8,29.2,388.8,22.4z"/>
</g>
</svg>
